<svg version="1.1" xmlns="http://www.w3.org/2000/svg" viewBox="0 0 544.7499313354492 456.3822326660156" width="544.7499313354492" height="456.3822326660156" filter="invert(93%) hue-rotate(180deg)">
  <!-- svg-source:excalidraw -->
  
  <defs>
    <style class="style-fonts">
      @font-face {
        font-family: "Virgil";
        src: url("https://file%2B.vscode-resource.vscode-cdn.net/home/flyinpancake/.vscode/extensions/pomdtr.excalidraw-editor-3.7.1/public//dist/excalidraw-assets/Virgil.woff2");
      }
      @font-face {
        font-family: "Cascadia";
        src: url("https://file%2B.vscode-resource.vscode-cdn.net/home/flyinpancake/.vscode/extensions/pomdtr.excalidraw-editor-3.7.1/public//dist/excalidraw-assets/Cascadia.woff2");
      }
      @font-face {
        font-family: "Assistant";
        src: url("https://file%2B.vscode-resource.vscode-cdn.net/home/flyinpancake/.vscode/extensions/pomdtr.excalidraw-editor-3.7.1/public//dist/excalidraw-assets/Assistant-Regular.woff2");
      }
    </style>
    
  </defs>
  <g stroke-linecap="round" transform="translate(13.277755737304688 314.81756591796875) rotate(0 73.61109924316406 65.78233337402344)"><path d="M32 0 C61.16 -0.11, 87.59 1.28, 115.22 0 M32 0 C51.57 0.46, 72.1 -0.94, 115.22 0 M115.22 0 C134.68 0.55, 148.99 9.96, 147.22 32 M115.22 0 C137.27 -0.71, 146.47 9.29, 147.22 32 M147.22 32 C147.42 46.46, 148.46 63.08, 147.22 99.56 M147.22 32 C146.22 57.08, 147.43 81.19, 147.22 99.56 M147.22 99.56 C145.55 122.26, 137.48 131.11, 115.22 131.56 M147.22 99.56 C147.2 121.09, 138.64 129.92, 115.22 131.56 M115.22 131.56 C93.73 129.77, 72.14 129.96, 32 131.56 M115.22 131.56 C97.55 132.13, 77.82 131.97, 32 131.56 M32 131.56 C10.85 133.35, 1.71 119.81, 0 99.56 M32 131.56 C9.99 130.92, -2.17 121.2, 0 99.56 M0 99.56 C-1.28 76.94, 0.71 49.86, 0 32 M0 99.56 C-0.69 73.51, -0.54 49.29, 0 32 M0 32 C1.65 10.8, 10.66 -1.4, 32 0 M0 32 C-0.4 12.21, 9.21 1.17, 32 0" stroke="#1e1e1e" stroke-width="2" fill="none"></path></g><g transform="translate(58.90888214111328 368.0998992919922) rotate(0 27.97997283935547 12.5)"><text x="27.97997283935547" y="0" font-family="Virgil, Segoe UI Emoji" font-size="20px" fill="#1e1e1e" text-anchor="middle" style="white-space: pre;" direction="ltr" dominant-baseline="text-before-edge">App A</text></g><g stroke-linecap="round" transform="translate(10 16.081268310546875) rotate(0 73.61109924316406 65.78233337402344)"><path d="M32 0 C59.81 -2.01, 87.56 0.06, 115.22 0 M32 0 C51.2 -0.67, 69.25 -0.81, 115.22 0 M115.22 0 C134.67 -1.45, 146.96 9.02, 147.22 32 M115.22 0 C134.94 2.25, 149.24 11.42, 147.22 32 M147.22 32 C148.44 51.38, 147.62 70.89, 147.22 99.56 M147.22 32 C146.57 50.14, 147.16 67.71, 147.22 99.56 M147.22 99.56 C145.59 121.9, 135.35 130.36, 115.22 131.56 M147.22 99.56 C146.48 119.09, 137.27 130.03, 115.22 131.56 M115.22 131.56 C86.96 130.92, 55.4 129.39, 32 131.56 M115.22 131.56 C83.35 132.01, 50.09 130.37, 32 131.56 M32 131.56 C10.4 132.73, 2 120.5, 0 99.56 M32 131.56 C11.08 132.89, 2.05 121.19, 0 99.56 M0 99.56 C1.31 82.92, 2.41 62.69, 0 32 M0 99.56 C0.27 75.14, 1.16 50.44, 0 32 M0 32 C-1.99 12.23, 10.58 -0.69, 32 0 M0 32 C2.23 11.51, 10.9 -2.14, 32 0" stroke="#1e1e1e" stroke-width="2" fill="none"></path></g><g transform="translate(26.611160278320312 69.36360168457031) rotate(0 56.99993896484375 12.5)"><text x="56.99993896484375" y="0" font-family="Virgil, Segoe UI Emoji" font-size="20px" fill="#1e1e1e" text-anchor="middle" style="white-space: pre;" direction="ltr" dominant-baseline="text-before-edge">Operator V1</text></g><g stroke-linecap="round"><g transform="translate(88.97218322753906 307.87310791015625) rotate(0 0.6944580078125 -76.57876586914062)"><path d="M-0.34 0.44 C-0.01 -25.21, 0.72 -128.4, 1.2 -154.18 M1.68 -0.38 C1.9 -25.89, 0.04 -127.65, 0.16 -153.18" stroke="#1e1e1e" stroke-width="2" fill="none"></path></g><g transform="translate(88.97218322753906 307.87310791015625) rotate(0 0.6944580078125 -76.57876586914062)"><path d="M0.51 -154.12 L7.72 -140.17 L-7.26 -137.75 L-0.77 -151.84" stroke="none" stroke-width="0" fill="#1e1e1e" fill-rule="evenodd"></path><path d="M0.16 -153.18 C2.18 -150.22, 1.87 -145.4, 6.61 -139.64 M0.16 -153.18 C0.75 -150.29, 3.23 -148.41, 6.61 -139.64 M6.61 -139.64 C2.09 -139.04, -2.98 -140.12, -6.07 -139.54 M6.61 -139.64 C3.57 -140.2, -0.58 -139.91, -6.07 -139.54 M-6.07 -139.54 C-4.16 -144.23, -2.53 -146.55, 0.16 -153.18 M-6.07 -139.54 C-5.07 -143.07, -3.6 -146.44, 0.16 -153.18 M0.16 -153.18 C0.16 -153.18, 0.16 -153.18, 0.16 -153.18 M0.16 -153.18 C0.16 -153.18, 0.16 -153.18, 0.16 -153.18" stroke="#1e1e1e" stroke-width="2" fill="none"></path></g></g><mask></mask><g stroke-linecap="round" transform="translate(387.5277328491211 308.7362976074219) rotate(0 73.61109924316406 65.78233337402344)"><path d="M32 0 C58.49 2.14, 87.89 2.27, 115.22 0 M32 0 C61.8 0.26, 89.74 -0.3, 115.22 0 M115.22 0 C135.15 1.53, 146.93 9.57, 147.22 32 M115.22 0 C134.96 1.34, 148.49 11.67, 147.22 32 M147.22 32 C145.57 54.34, 148.26 76.23, 147.22 99.56 M147.22 32 C148.28 50.66, 148.55 70.3, 147.22 99.56 M147.22 99.56 C147.96 120.19, 138.4 130.92, 115.22 131.56 M147.22 99.56 C149.36 121, 136.72 133.31, 115.22 131.56 M115.22 131.56 C82.08 130.67, 48.08 131.8, 32 131.56 M115.22 131.56 C93.75 131.69, 71.35 132.44, 32 131.56 M32 131.56 C11.38 130.22, 1.58 120.21, 0 99.56 M32 131.56 C10.2 131.17, 0.52 120.21, 0 99.56 M0 99.56 C-0.73 79.96, -1.98 59.65, 0 32 M0 99.56 C0.38 84.85, 0.75 70.34, 0 32 M0 32 C-1.43 12.58, 12.43 1.06, 32 0 M0 32 C0.42 8.63, 12.1 -1.18, 32 0" stroke="#1e1e1e" stroke-width="2" fill="none"></path></g><g transform="translate(432.44886016845703 362.0186309814453) rotate(0 28.689971923828125 12.5)"><text x="28.689971923828125" y="0" font-family="Virgil, Segoe UI Emoji" font-size="20px" fill="#1e1e1e" text-anchor="middle" style="white-space: pre;" direction="ltr" dominant-baseline="text-before-edge">App B</text></g><g stroke-linecap="round" transform="translate(384.2499771118164 10) rotate(0 73.61109924316406 65.78233337402344)"><path d="M32 0 C63.45 0.79, 94.31 1.04, 115.22 0 M32 0 C63.09 0.55, 95.43 -0.76, 115.22 0 M115.22 0 C135.17 1.17, 148.32 11.54, 147.22 32 M115.22 0 C136.97 -2.01, 147.57 9.45, 147.22 32 M147.22 32 C147.56 56.51, 149.08 79.4, 147.22 99.56 M147.22 32 C148.17 45.96, 148.72 60.31, 147.22 99.56 M147.22 99.56 C149.09 120.99, 136.7 133.09, 115.22 131.56 M147.22 99.56 C149.36 120.82, 135.8 131.07, 115.22 131.56 M115.22 131.56 C92.15 132.16, 71.26 132.82, 32 131.56 M115.22 131.56 C92.22 131.36, 69.29 131.69, 32 131.56 M32 131.56 C10.26 131.22, 0.45 120.3, 0 99.56 M32 131.56 C10.83 132.76, 0.24 120.47, 0 99.56 M0 99.56 C-1.06 75.17, -1.08 51.94, 0 32 M0 99.56 C-1.15 79.4, 0.44 57.85, 0 32 M0 32 C0.37 8.9, 11.92 -1.02, 32 0 M0 32 C0.01 10.94, 8.66 -2.27, 32 0" stroke="#1e1e1e" stroke-width="2" fill="none"></path></g><g transform="translate(396.4511413574219 63.28233337402344) rotate(0 61.409934997558594 12.5)"><text x="61.409934997558594" y="0" font-family="Virgil, Segoe UI Emoji" font-size="20px" fill="#1e1e1e" text-anchor="middle" style="white-space: pre;" direction="ltr" dominant-baseline="text-before-edge">Operator V2</text></g><g stroke-linecap="round"><g transform="translate(463.22216033935547 301.7918395996094) rotate(0 0.6944580078125 -76.57876586914062)"><path d="M0.99 0.98 C1.04 -24.62, 1.19 -127.31, 1.12 -152.85 M0.05 0.45 C-0.16 -25.6, -0.46 -129.05, 0.03 -154.81" stroke="#1e1e1e" stroke-width="2" fill="none"></path></g><g transform="translate(463.22216033935547 301.7918395996094) rotate(0 0.6944580078125 -76.57876586914062)"><path d="M0.49 -155.41 L6.42 -140.13 L-6.18 -141.63 L1.16 -156.44" stroke="none" stroke-width="0" fill="#1e1e1e" fill-rule="evenodd"></path><path d="M0.03 -154.81 C3.66 -150.16, 5.13 -145.84, 6.29 -141.18 M0.03 -154.81 C1.85 -149.21, 5.13 -144.18, 6.29 -141.18 M6.29 -141.18 C1.58 -140.65, -0.75 -140.42, -6.39 -141.26 M6.29 -141.18 C2.99 -141.68, -0.5 -141.63, -6.39 -141.26 M-6.39 -141.26 C-4.66 -144.48, -1.95 -150.34, 0.03 -154.81 M-6.39 -141.26 C-4.35 -146.51, -1.92 -152.09, 0.03 -154.81 M0.03 -154.81 C0.03 -154.81, 0.03 -154.81, 0.03 -154.81 M0.03 -154.81 C0.03 -154.81, 0.03 -154.81, 0.03 -154.81" stroke="#1e1e1e" stroke-width="2" fill="none"></path></g></g><mask></mask><g mask="url(#mask-qmpqKnPId4HhQZCalU7AL)" stroke-linecap="round"><g transform="translate(168.1388702392578 75.23423767089844) rotate(0 104.16665649414062 -0.537109375)"><path d="M-0.29 -0.88 C34.71 -1.31, 174.1 -1.6, 209.02 -1.65 M1.76 1.27 C36.75 0.92, 173.9 -0.21, 208.43 -0.42" stroke="#e03131" stroke-width="2" fill="none"></path></g><g transform="translate(168.1388702392578 75.23423767089844) rotate(0 104.16665649414062 -0.537109375)"><path d="M0.08 -0.22 L12.3 -8.91 L13.21 6.58 L1.4 1.11" stroke="none" stroke-width="0" fill="#e03131" fill-rule="evenodd"></path><path d="M-0.29 -0.88 C1.52 -1.39, 4.86 -2.53, 13.28 -7.28 M-0.29 -0.88 C3.51 -2.59, 7.61 -3.9, 13.28 -7.28 M13.28 -7.28 C14.08 -3.83, 14.35 1.46, 13.33 5.4 M13.28 -7.28 C13.45 -3.63, 12.83 0.67, 13.33 5.4 M13.33 5.4 C9.1 4.27, 2.27 1.58, -0.29 -0.88 M13.33 5.4 C9.53 3.84, 3.96 0.8, -0.29 -0.88 M-0.29 -0.88 C-0.29 -0.88, -0.29 -0.88, -0.29 -0.88 M-0.29 -0.88 C-0.29 -0.88, -0.29 -0.88, -0.29 -0.88" stroke="#e03131" stroke-width="2" fill="none"></path></g><g transform="translate(168.1388702392578 75.23423767089844) rotate(0 104.16665649414062 -0.537109375)"><path d="M208.8 0.24 L193.9 4.38 L194.67 -5.48 L210.12 1.58" stroke="none" stroke-width="0" fill="#e03131" fill-rule="evenodd"></path><path d="M208.43 -0.42 C204.42 1.81, 201.84 3.47, 194.88 6.02 M208.43 -0.42 C204.34 1.46, 200.59 3.86, 194.88 6.02 M194.88 6.02 C195.6 0.26, 195.81 -3.65, 194.79 -6.66 M194.88 6.02 C194.95 1.84, 194.28 -1.68, 194.79 -6.66 M194.79 -6.66 C200.36 -3.38, 203.4 -1.53, 208.43 -0.42 M194.79 -6.66 C200.06 -4.08, 203.68 -2.9, 208.43 -0.42 M208.43 -0.42 C208.43 -0.42, 208.43 -0.42, 208.43 -0.42 M208.43 -0.42 C208.43 -0.42, 208.43 -0.42, 208.43 -0.42" stroke="#e03131" stroke-width="2" fill="none"></path></g></g><mask id="mask-qmpqKnPId4HhQZCalU7AL"><rect x="0" y="0" fill="#fff" width="476.47218322753906" height="176.30845642089844"></rect><rect x="216.16294860839844" y="63.19712829589844" fill="#000" width="112.28515625" height="23" opacity="1"></rect></mask><g transform="translate(216.16294860839844 63.19712829589844) rotate(0 56.339227706566476 11.848445447096594)"><text x="56.142578125" y="0" font-family="Helvetica, Segoe UI Emoji" font-size="20px" fill="#e03131" text-anchor="middle" style="white-space: pre;" direction="ltr" dominant-baseline="text-before-edge">incompatible</text></g></svg>