<svg version="1.1" xmlns="http://www.w3.org/2000/svg" viewBox="0 0 823.1983058949602 535.1431884765625" width="823.1983058949602" height="535.1431884765625" filter="invert(93%) hue-rotate(180deg)">
  <!-- svg-source:excalidraw -->
  
  <defs>
    <style class="style-fonts">
      @font-face {
        font-family: "Virgil";
        src: url("https://virgil.excalidraw.com/Virgil.woff2");
      }
      @font-face {
        font-family: "Cascadia";
        src: url("https://file%2B.vscode-resource.vscode-cdn.net/home/flyinpancake/.vscode/extensions/pomdtr.excalidraw-editor-3.7.1/public//dist/excalidraw-assets/Cascadia.woff2");
      }
      @font-face {
        font-family: "Assistant";
        src: url("https://file%2B.vscode-resource.vscode-cdn.net/home/flyinpancake/.vscode/extensions/pomdtr.excalidraw-editor-3.7.1/public//dist/excalidraw-assets/Assistant-Regular.woff2");
      }
    </style>
    
  </defs>
  <g stroke-linecap="round" transform="translate(190.2349473163302 10) rotate(0 311.481679289315 257.57159423828125)"><path d="M32 0 C237.36 -0.13, 444.35 0.73, 590.96 0 M32 0 C240.24 -1.23, 448.53 -1.74, 590.96 0 M590.96 0 C613.34 -0.92, 622.94 9.44, 622.96 32 M590.96 0 C610.46 -2.02, 624.8 9.33, 622.96 32 M622.96 32 C624.16 127.73, 623.82 221.72, 622.96 483.14 M622.96 32 C621.78 127.04, 622.22 223.2, 622.96 483.14 M622.96 483.14 C624.06 504.59, 614.17 516.34, 590.96 515.14 M622.96 483.14 C624.99 506.04, 610.45 513.33, 590.96 515.14 M590.96 515.14 C406.41 517.27, 221.06 517.95, 32 515.14 M590.96 515.14 C475.29 513.84, 360.29 514.31, 32 515.14 M32 515.14 C11.58 513.49, 1.24 503.02, 0 483.14 M32 515.14 C10.86 516.9, -0.4 505.21, 0 483.14 M0 483.14 C0.04 377.36, -0.69 272.67, 0 32 M0 483.14 C-1.96 326.96, -1.78 170.04, 0 32 M0 32 C-1.77 10.89, 11.7 0.13, 32 0 M0 32 C-1.02 9.09, 11.44 1.88, 32 0" stroke="#1e1e1e" stroke-width="1" fill="none"></path></g><g stroke-linecap="round" transform="translate(205.69835167132743 364.1666564941406) rotate(0 294.1666564941406 72.24609375)"><path d="M32 0 C186.3 1.3, 340.49 0.48, 556.33 0 M32 0 C227.06 -2.18, 423 -2.24, 556.33 0 M556.33 0 C577.64 -1.23, 586.74 8.91, 588.33 32 M556.33 0 C579.51 -1.33, 586.27 11.89, 588.33 32 M588.33 32 C587.76 55, 586.6 76.85, 588.33 112.49 M588.33 32 C589.02 61.88, 588.78 90.76, 588.33 112.49 M588.33 112.49 C590.21 135.02, 579.43 145.85, 556.33 144.49 M588.33 112.49 C586.49 132.01, 578.39 142.79, 556.33 144.49 M556.33 144.49 C348.74 145.02, 139.29 144, 32 144.49 M556.33 144.49 C425.88 143.91, 295.28 143.27, 32 144.49 M32 144.49 C11.91 143.03, 0.17 135.35, 0 112.49 M32 144.49 C10.27 145.22, -1.53 134.66, 0 112.49 M0 112.49 C-0.49 85.85, 0.24 60.68, 0 32 M0 112.49 C0.29 93.7, -0.53 76.91, 0 32 M0 32 C1.03 10.8, 9.78 -1.37, 32 0 M0 32 C0.78 12.55, 9.25 -0.24, 32 0" stroke="#1e1e1e" stroke-width="1" fill="none"></path></g><g transform="translate(438.0888774891985 483.6588439941406) rotate(0 61.77613067626953 10)"><text x="61.77613067626953" y="0" font-family="Virgil, Segoe UI Emoji" font-size="16px" fill="#1e1e1e" text-anchor="middle" style="white-space: pre;" direction="ltr" dominant-baseline="text-before-edge">host namespace</text></g><g stroke-linecap="round" transform="translate(209.70070386182311 230) rotate(0 290.00000190734863 58.65885925292969)"><path d="M29.33 0 C168.57 -1.77, 307.22 -1.93, 550.67 0 M29.33 0 C237.04 0.44, 444.32 0.38, 550.67 0 M550.67 0 C568.63 -1.76, 581.6 8.62, 580 29.33 M550.67 0 C568.16 1.22, 579.66 9.88, 580 29.33 M580 29.33 C578.05 51.28, 581.11 75.03, 580 87.99 M580 29.33 C581.01 41.68, 581.4 54.52, 580 87.99 M580 87.99 C581.76 108.9, 568.62 115.74, 550.67 117.32 M580 87.99 C580.72 105.84, 572.45 119.25, 550.67 117.32 M550.67 117.32 C396.19 118.59, 242.81 118.45, 29.33 117.32 M550.67 117.32 C416.56 118.6, 282.34 118.64, 29.33 117.32 M29.33 117.32 C9.95 118.84, -0.35 108.18, 0 87.99 M29.33 117.32 C8.24 118.15, 0.73 109.53, 0 87.99 M0 87.99 C0.87 75.26, -1.63 58.43, 0 29.33 M0 87.99 C-0.85 68.81, 0.55 49.47, 0 29.33 M0 29.33 C-0.89 8.4, 10.45 1.64, 29.33 0 M0 29.33 C-1.41 9.53, 10.59 2.27, 29.33 0" stroke="#1e1e1e" stroke-width="1" fill="none"></path></g><g transform="translate(423.0205376173163 322.3177185058594) rotate(0 76.68016815185547 10)"><text x="76.68016815185547" y="0" font-family="Virgil, Segoe UI Emoji" font-size="16px" fill="#1e1e1e" text-anchor="middle" style="white-space: pre;" direction="ltr" dominant-baseline="text-before-edge">kube-virtual-cluster</text></g><g stroke-linecap="round" transform="translate(260.367364170661 259.1510314941406) rotate(0 251.5 22)"><path d="M0 0 C0 0, 0 0, 0 0 M0 0 C0 0, 0 0, 0 0 M-0.26 6.4 C1.28 5.2, 1.59 3.36, 4.99 0.36 M-0.26 6.4 C1.4 4.56, 3.59 2.3, 4.99 0.36 M0.13 12.04 C1.83 9.38, 6.06 5.77, 10.63 -0.03 M0.13 12.04 C3.41 8.75, 5.46 4.64, 10.63 -0.03 M-0.13 18.44 C5.46 11.41, 10.47 8.66, 15.62 0.33 M-0.13 18.44 C3.57 15.34, 6.48 9.98, 15.62 0.33 M0.27 24.08 C8.37 17.1, 13.33 8.06, 21.26 -0.07 M0.27 24.08 C5.63 18.14, 11.49 12.91, 21.26 -0.07 M0 30.48 C7.83 17.98, 18.2 7.77, 26.25 0.29 M0 30.48 C9.96 18.24, 20.32 5.48, 26.25 0.29 M-0.26 36.88 C11.9 22.64, 25.01 9.54, 31.89 -0.1 M-0.26 36.88 C6.81 28.43, 13.6 21.54, 31.89 -0.1 M0.14 42.52 C10.7 29, 23.23 16.77, 36.88 0.26 M0.14 42.52 C10.53 30.88, 22.09 18.55, 36.88 0.26 M3.81 44.39 C17.44 30.62, 30.58 16.9, 42.52 -0.14 M3.81 44.39 C13.28 31.45, 23.17 21.58, 42.52 -0.14 M9.46 44 C17.67 32.7, 25.58 25.53, 47.51 0.22 M9.46 44 C21.03 30.54, 31.72 16.32, 47.51 0.22 M14.44 44.36 C22.96 31.68, 34.92 19.53, 53.15 -0.17 M14.44 44.36 C27.37 28.81, 40.84 15.85, 53.15 -0.17 M20.09 43.96 C30.45 30.66, 43.77 15.01, 58.14 0.19 M20.09 43.96 C32.07 29, 43.49 16.22, 58.14 0.19 M25.07 44.32 C37.14 32.06, 48.44 14.5, 63.78 -0.21 M25.07 44.32 C35.53 32.67, 45.58 19.86, 63.78 -0.21 M30.72 43.93 C39.55 34.3, 49.04 23.45, 68.77 0.15 M30.72 43.93 C43.39 27.46, 58.39 13.08, 68.77 0.15 M35.7 44.29 C45.49 33.39, 55.83 19.35, 74.41 -0.24 M35.7 44.29 C48.01 31.1, 59.29 17.68, 74.41 -0.24 M41.35 43.89 C51.58 32.84, 56.68 23.86, 79.4 0.12 M41.35 43.89 C53.61 30.09, 65.28 16.57, 79.4 0.12 M46.33 44.25 C62.19 28.46, 73.29 13.05, 85.04 -0.28 M46.33 44.25 C54.27 34.94, 62.76 25.31, 85.04 -0.28 M51.98 43.86 C65.51 26.15, 80.04 10.94, 90.03 0.08 M51.98 43.86 C61.34 31.6, 71.7 21.21, 90.03 0.08 M56.96 44.22 C69.92 31.94, 81.69 15.68, 95.67 -0.31 M56.96 44.22 C65.24 35.1, 72.79 25.84, 95.67 -0.31 M62.61 43.82 C73.95 31.22, 88.42 16.77, 100.66 0.05 M62.61 43.82 C75.02 29.94, 87.98 15.5, 100.66 0.05 M67.59 44.18 C81.4 28.9, 90.7 15.96, 106.3 -0.34 M67.59 44.18 C80.96 29.75, 92.47 14.98, 106.3 -0.34 M73.24 43.79 C87.44 28.45, 101.18 8.88, 111.29 0.02 M73.24 43.79 C86.95 27.92, 101.84 10.57, 111.29 0.02 M78.22 44.15 C90 28.6, 102.14 16.48, 116.27 0.38 M78.22 44.15 C91.35 30.22, 102.1 16.53, 116.27 0.38 M83.87 43.75 C92.28 34.63, 100.16 24.17, 121.92 -0.02 M83.87 43.75 C99.04 26.33, 111.54 10.27, 121.92 -0.02 M88.85 44.11 C101.43 30.34, 110.37 18.08, 126.91 0.34 M88.85 44.11 C95.62 36.46, 104.67 27.59, 126.91 0.34 M94.5 43.72 C101.62 36.4, 110.14 25.46, 132.55 -0.05 M94.5 43.72 C104.66 31.76, 113.92 21.3, 132.55 -0.05 M99.48 44.08 C112.16 30.86, 126.93 15.44, 137.54 0.31 M99.48 44.08 C113.48 26.91, 129.18 9.97, 137.54 0.31 M104.47 44.44 C121.43 25.26, 134.92 7.61, 143.18 -0.09 M104.47 44.44 C119.83 27.3, 132.91 9.76, 143.18 -0.09 M110.11 44.04 C122.96 32.43, 131.9 18.26, 148.17 0.27 M110.11 44.04 C120.41 31.47, 129.76 21.72, 148.17 0.27 M115.1 44.41 C127.09 29.79, 141.41 12.05, 153.81 -0.12 M115.1 44.41 C127.68 30.27, 139.4 17.01, 153.81 -0.12 M120.74 44.01 C129.98 33.33, 139.7 23.97, 158.8 0.24 M120.74 44.01 C133.99 27.88, 149.4 11.1, 158.8 0.24 M125.73 44.37 C132.04 36.55, 143.63 25.8, 164.44 -0.16 M125.73 44.37 C135.75 34.24, 143.35 24.08, 164.44 -0.16 M131.37 43.98 C141.55 28.86, 156.23 19.19, 169.43 0.2 M131.37 43.98 C145.88 26.08, 159.9 10.87, 169.43 0.2 M136.36 44.34 C150.39 32.24, 161.29 17.54, 175.07 -0.19 M136.36 44.34 C149.74 29.55, 161.81 14.09, 175.07 -0.19 M142 43.94 C151.91 31.85, 161.45 22.06, 180.06 0.17 M142 43.94 C149.54 35.18, 157.55 25.04, 180.06 0.17 M146.99 44.3 C156.83 32.55, 165.15 23.29, 185.7 -0.23 M146.99 44.3 C156.46 32, 166.69 20.98, 185.7 -0.23 M152.63 43.91 C166.24 25.84, 180.71 12.12, 190.69 0.13 M152.63 43.91 C162.88 32.41, 171.13 20.77, 190.69 0.13 M157.62 44.27 C168.99 30.38, 185.29 14.97, 196.33 -0.26 M157.62 44.27 C173.35 27.13, 188.6 9.87, 196.33 -0.26 M163.26 43.87 C179.11 26.18, 193.33 11.47, 201.32 0.1 M163.26 43.87 C176.32 29.96, 188.13 15.33, 201.32 0.1 M168.25 44.23 C178.38 33.96, 184.15 26.19, 206.96 -0.3 M168.25 44.23 C178.13 35.4, 186.71 24.04, 206.96 -0.3 M173.89 43.84 C180.94 34.22, 193.31 23.59, 211.95 0.06 M173.89 43.84 C188.37 27.38, 202.98 9.83, 211.95 0.06 M178.88 44.2 C191.49 32.74, 199.48 18.42, 217.59 -0.33 M178.88 44.2 C193.06 29.19, 206.29 12.29, 217.59 -0.33 M184.52 43.8 C197.95 25.55, 213.12 9.26, 222.58 0.03 M184.52 43.8 C197.15 27.16, 210.74 13.26, 222.58 0.03 M189.51 44.16 C200.39 31.49, 212.89 17.91, 228.22 -0.36 M189.51 44.16 C201.86 29.81, 212.61 16.5, 228.22 -0.36 M195.15 43.77 C206.55 28.04, 220.54 13.41, 233.21 0 M195.15 43.77 C206.6 29.96, 217.15 17.22, 233.21 0 M200.14 44.13 C210.51 30.24, 224.24 15.82, 238.19 0.36 M200.14 44.13 C212.44 31, 222.96 16.63, 238.19 0.36 M205.78 43.73 C214.21 35.85, 224.69 25.52, 243.84 -0.04 M205.78 43.73 C218.01 29.08, 230.33 16.87, 243.84 -0.04 M210.77 44.09 C223.79 28.17, 235.97 12.48, 248.82 0.32 M210.77 44.09 C222.61 31.56, 232.7 17.49, 248.82 0.32 M215.76 44.45 C226.77 32.86, 240.48 16.74, 254.47 -0.07 M215.76 44.45 C230.13 26.42, 245.34 8.94, 254.47 -0.07 M221.4 44.06 C229.95 32.32, 239.44 23.84, 259.45 0.29 M221.4 44.06 C235.58 27.5, 248.73 12.03, 259.45 0.29 M226.39 44.42 C235.45 33.98, 244.11 24.74, 265.1 -0.11 M226.39 44.42 C238.1 29.79, 250.24 16.63, 265.1 -0.11 M232.03 44.03 C239.89 34.12, 252.11 23.25, 270.08 0.25 M232.03 44.03 C241.39 32.1, 250.71 20.48, 270.08 0.25 M237.02 44.39 C252.49 29.44, 267.73 11.46, 275.73 -0.14 M237.02 44.39 C246.15 33.83, 253.49 24.77, 275.73 -0.14 M242.66 43.99 C250.1 35.41, 259.13 22.27, 280.71 0.22 M242.66 43.99 C254.36 31.7, 264.55 18.92, 280.71 0.22 M247.65 44.35 C259.42 29.24, 273.07 14.89, 286.36 -0.18 M247.65 44.35 C257.14 33.94, 264.99 24.06, 286.36 -0.18 M253.29 43.96 C263.82 32.14, 273.52 20.56, 291.34 0.18 M253.29 43.96 C260.72 34.17, 270.18 23.93, 291.34 0.18 M258.28 44.32 C271.52 28.09, 286.11 15.09, 296.99 -0.21 M258.28 44.32 C267.56 34.31, 275.72 24.18, 296.99 -0.21 M263.92 43.92 C272.14 33.16, 281.85 25.76, 301.97 0.15 M263.92 43.92 C273.14 33.17, 282.3 23.42, 301.97 0.15 M268.91 44.28 C281.22 28.77, 297.94 10.49, 307.62 -0.25 M268.91 44.28 C277.16 33.93, 284.72 25.65, 307.62 -0.25 M274.55 43.89 C286.73 26.22, 304.03 9.61, 312.6 0.11 M274.55 43.89 C285.9 31.87, 296.57 18.3, 312.6 0.11 M279.54 44.25 C294.14 29.5, 308.14 11.06, 318.25 -0.28 M279.54 44.25 C287.96 36, 294.43 26.46, 318.25 -0.28 M285.18 43.85 C296.29 31.94, 307.87 18.03, 323.23 0.08 M285.18 43.85 C299.14 26.02, 313.61 11.09, 323.23 0.08 M290.17 44.21 C304.07 25.21, 319.88 7.96, 328.88 -0.31 M290.17 44.21 C304.36 26.67, 318.5 9.57, 328.88 -0.31 M295.81 43.82 C303.09 33.82, 310.67 23.6, 333.86 0.05 M295.81 43.82 C308.57 28.13, 323.01 14.54, 333.86 0.05 M300.8 44.18 C316.06 27.19, 331.13 9.68, 339.51 -0.35 M300.8 44.18 C309.77 32.84, 319.53 20.7, 339.51 -0.35 M306.44 43.78 C319.49 30.01, 333.57 12.55, 344.49 0.01 M306.44 43.78 C321.27 26.97, 335.99 11.25, 344.49 0.01 M311.43 44.14 C320.04 33.17, 332.01 19.88, 349.48 0.37 M311.43 44.14 C323.43 30.28, 335.45 15.05, 349.48 0.37 M317.07 43.75 C329.76 29.3, 343.9 14.02, 355.12 -0.02 M317.07 43.75 C329.16 29.14, 342.38 13.8, 355.12 -0.02 M322.06 44.11 C332.24 31.62, 342.44 19.54, 360.11 0.34 M322.06 44.11 C332.97 32.78, 341.54 21.97, 360.11 0.34 M327.7 43.72 C336.36 35.12, 344.1 25.34, 365.75 -0.06 M327.7 43.72 C337.88 31.49, 346.48 21.39, 365.75 -0.06 M332.69 44.08 C346.04 28.58, 358.97 14.06, 370.74 0.3 M332.69 44.08 C341.82 31.97, 352.3 21.76, 370.74 0.3 M337.68 44.44 C348.52 29.53, 360.34 15.45, 376.38 -0.09 M337.68 44.44 C345.52 35.79, 354.1 24.65, 376.38 -0.09 M343.32 44.04 C352.55 36.34, 359.74 23.76, 381.37 0.27 M343.32 44.04 C356.17 29.52, 366.78 16.56, 381.37 0.27 M348.31 44.4 C362.02 26.63, 379.24 10.58, 387.01 -0.13 M348.31 44.4 C358.99 32.21, 370.62 20.11, 387.01 -0.13 M353.95 44.01 C365.44 32.93, 375.7 20.9, 392 0.23 M353.95 44.01 C368.93 28.22, 383.82 10.55, 392 0.23 M358.94 44.37 C368.74 33.24, 377.41 23.97, 397.64 -0.16 M358.94 44.37 C372.93 27.87, 386.83 12.32, 397.64 -0.16 M364.58 43.97 C371.29 35.67, 379.47 28.21, 402.63 0.2 M364.58 43.97 C379.27 27.02, 391.69 11.29, 402.63 0.2 M369.57 44.33 C379.43 32.06, 386.73 20.5, 408.27 -0.2 M369.57 44.33 C382.81 28.34, 395.29 13.56, 408.27 -0.2 M375.21 43.94 C389.49 29.88, 398.75 14.69, 413.26 0.16 M375.21 43.94 C388.4 27.79, 403.4 13.43, 413.26 0.16 M380.2 44.3 C389.1 36.34, 397.63 25.04, 418.9 -0.23 M380.2 44.3 C394.59 26.58, 409.8 11.22, 418.9 -0.23 M385.84 43.9 C395.84 29.87, 406.41 17.5, 423.89 0.13 M385.84 43.9 C399.16 27.81, 414.8 10.26, 423.89 0.13 M390.83 44.26 C406.5 27.12, 419.11 10.74, 429.53 -0.26 M390.83 44.26 C404.83 28.23, 420.1 11.43, 429.53 -0.26 M396.47 43.87 C406.07 30.75, 417.52 16.83, 434.52 0.1 M396.47 43.87 C405.87 32.52, 416.63 20.89, 434.52 0.1 M401.46 44.23 C414.83 28.63, 424.88 15.39, 440.16 -0.3 M401.46 44.23 C413.08 30.14, 423.9 18.13, 440.16 -0.3 M407.1 43.83 C416.91 31.86, 432.13 18.77, 445.15 0.06 M407.1 43.83 C421.54 27.51, 434.4 13.56, 445.15 0.06 M412.09 44.19 C424.56 31.38, 436.52 14.63, 450.79 -0.33 M412.09 44.19 C423.85 30.38, 434.74 16.68, 450.79 -0.33 M417.73 43.8 C427.94 33.32, 436.57 22.7, 455.78 0.03 M417.73 43.8 C424.94 35.3, 431.97 27.36, 455.78 0.03 M422.72 44.16 C436.13 25.54, 451.3 7.4, 461.42 -0.37 M422.72 44.16 C437.79 26.63, 453.5 9.62, 461.42 -0.37 M428.36 43.76 C437.61 33.01, 447.25 21.91, 466.41 -0.01 M428.36 43.76 C438.28 32.29, 449.91 18.74, 466.41 -0.01 M433.35 44.12 C442.35 33.04, 452.61 24.69, 471.4 0.35 M433.35 44.12 C445.04 29.99, 457.76 17.14, 471.4 0.35 M438.99 43.73 C450.83 32.05, 462.46 17.47, 477.04 -0.04 M438.99 43.73 C449.78 31.33, 461.41 18.5, 477.04 -0.04 M443.98 44.09 C453.13 32.16, 465.82 20.44, 482.03 0.32 M443.98 44.09 C455.5 30.85, 467.9 16.86, 482.03 0.32 M448.96 44.45 C456.51 34.69, 468.64 23.02, 487.67 -0.08 M448.96 44.45 C456.2 35.23, 464.78 25.02, 487.67 -0.08 M454.61 44.06 C461.35 34.03, 469.3 27.75, 492.66 0.28 M454.61 44.06 C469.23 26.77, 485.18 10.32, 492.66 0.28 M459.59 44.42 C469.4 34.64, 476.29 21.22, 498.3 -0.11 M459.59 44.42 C470.14 30.9, 480.45 19.29, 498.3 -0.11 M465.24 44.02 C478.45 27.8, 488.59 13.91, 503.29 0.25 M465.24 44.02 C479.64 26.07, 495.81 9.01, 503.29 0.25 M470.22 44.38 C476.88 34.94, 487.46 26.89, 503.03 6.65 M470.22 44.38 C477.19 36.04, 484.86 29.01, 503.03 6.65 M475.87 43.99 C484.4 32.22, 496.64 20.54, 503.42 12.29 M475.87 43.99 C486.39 32.46, 495.19 20.41, 503.42 12.29 M480.85 44.35 C489.88 34.38, 498.76 26.4, 503.16 18.69 M480.85 44.35 C489.23 34.95, 496.06 27.75, 503.16 18.69 M486.5 43.95 C490.91 37.75, 497.98 30.03, 503.56 24.33 M486.5 43.95 C493.2 36.36, 499.22 30.84, 503.56 24.33 M491.48 44.31 C494.36 39.6, 501.22 31.74, 503.29 30.73 M491.48 44.31 C494.98 38.69, 498.84 34.95, 503.29 30.73 M497.13 43.92 C498.11 42.26, 500.62 40.66, 503.03 37.13 M497.13 43.92 C498.59 42.39, 499.88 40.01, 503.03 37.13 M502.11 44.28 C502.58 43.77, 502.79 43.74, 503.43 42.77 M502.11 44.28 C502.44 43.9, 502.87 43.3, 503.43 42.77" stroke="#ffec99" stroke-width="0.5" fill="none"></path><path d="M0 0 C136.99 0.32, 272.18 1.41, 503 0 M0 0 C127.55 0.88, 256.06 1, 503 0 M503 0 C503.32 11.08, 502.62 18.56, 503 44 M503 0 C502.65 8.41, 503.56 19.15, 503 44 M503 44 C324.88 46.59, 146.35 45.24, 0 44 M503 44 C392.17 42.85, 280.54 42.79, 0 44 M0 44 C-0.61 26.01, -0.44 11.44, 0 0 M0 44 C0.42 26.66, -0.12 11.55, 0 0" stroke="#1e1e1e" stroke-width="1" fill="none"></path></g><g transform="translate(426.97918820630554 271.1510314941406) rotate(0 84.88817596435547 10)"><text x="84.88817596435547" y="0" font-family="Virgil, Segoe UI Emoji" font-size="16px" fill="#1e1e1e" text-anchor="middle" style="white-space: pre;" direction="ltr" dominant-baseline="text-before-edge">virtual cluster syncer</text></g><g stroke-linecap="round" transform="translate(211.94371299945243 30.28276824951172) rotate(0 137 90.5)"><path d="M32 0 C76.56 -0.99, 121.65 -2.38, 242 0 M32 0 C75.74 1.54, 120.93 1.12, 242 0 M242 0 C265.17 -0.61, 274.06 8.9, 274 32 M242 0 C262.15 1.49, 273.71 8.59, 274 32 M274 32 C274.73 78.17, 275.82 122.35, 274 149 M274 32 C273.38 74.33, 274.03 118.97, 274 149 M274 149 C273.9 171.72, 264.92 179.13, 242 181 M274 149 C272.9 169.16, 261.83 180.02, 242 181 M242 181 C169.02 182.95, 97.67 182, 32 181 M242 181 C162.41 181.91, 84.29 182.35, 32 181 M32 181 C9.56 181.21, 0.08 171.26, 0 149 M32 181 C12.52 179.2, -1 171, 0 149 M0 149 C1.33 115.62, 1.24 79.28, 0 32 M0 149 C-1.01 121.82, -0.04 95.84, 0 32 M0 32 C-0.51 9.58, 9.96 0.71, 32 0 M0 32 C-1.32 11.15, 11.71 -0.43, 32 0" stroke="#1e1e1e" stroke-width="1" fill="none"></path></g><g transform="translate(256.08751945697196 35.28276824951172) rotate(0 92.85619354248047 10)"><text x="92.85619354248047" y="0" font-family="Virgil, Segoe UI Emoji" font-size="16px" fill="#1e1e1e" text-anchor="middle" style="white-space: pre;" direction="ltr" dominant-baseline="text-before-edge">virtual cluster: example</text></g><g stroke-linecap="round" transform="translate(328.86500816546805 73.65104675292969) rotate(0 69.16665649414062 22.408851623535156)"><path d="M2.98 2.59 C2.98 2.59, 2.98 2.59, 2.98 2.59 M2.98 2.59 C2.98 2.59, 2.98 2.59, 2.98 2.59 M0.75 11.25 C2.95 8.87, 5.45 5.32, 9.94 0.69 M0.75 11.25 C4.07 7.55, 6.63 3.72, 9.94 0.69 M0.49 17.65 C6.8 13.38, 9.2 7.17, 15.58 0.29 M0.49 17.65 C3.34 14.69, 8.24 10.35, 15.58 0.29 M0.89 23.3 C4.52 18.49, 11.95 11.56, 20.57 0.65 M0.89 23.3 C7.19 15.2, 13.63 8.21, 20.57 0.65 M0.62 29.69 C9.62 19.47, 17.97 8.43, 26.21 0.26 M0.62 29.69 C7.32 21.99, 12.97 15.2, 26.21 0.26 M1.02 35.34 C9.34 27.26, 14.04 19.51, 31.2 0.62 M1.02 35.34 C11.77 23.34, 21.6 13.18, 31.2 0.62 M2.07 40.22 C13.6 28.08, 22.94 17.1, 36.84 0.22 M2.07 40.22 C13.32 28.4, 24.22 16.4, 36.84 0.22 M5.09 42.85 C15.66 27.89, 31.28 13.42, 41.83 0.59 M5.09 42.85 C13.06 33.23, 23.12 22.26, 41.83 0.59 M9.42 43.96 C24.19 29.63, 32.83 13.17, 47.47 0.19 M9.42 43.96 C16.17 35.33, 25.17 27.23, 47.47 0.19 M14.41 44.32 C27.08 31.32, 38.84 15.8, 52.46 0.55 M14.41 44.32 C24.19 31.66, 36.14 19.21, 52.46 0.55 M19.39 44.68 C30.04 28.98, 42.94 17.37, 57.44 0.91 M19.39 44.68 C29.92 33.15, 40.02 21.23, 57.44 0.91 M25.04 44.29 C34.3 33.89, 41.71 25.96, 63.09 0.52 M25.04 44.29 C34.6 32.64, 45.71 20.53, 63.09 0.52 M30.02 44.65 C44.8 27.57, 57.72 13.53, 68.08 0.88 M30.02 44.65 C45.02 28, 60.01 11.44, 68.08 0.88 M35.67 44.25 C49.01 31.42, 60.82 14.69, 73.72 0.48 M35.67 44.25 C50.73 27.42, 64.83 10.91, 73.72 0.48 M40.65 44.61 C51.74 35.52, 60.26 22.64, 78.71 0.84 M40.65 44.61 C51.55 31.64, 62.37 19.1, 78.71 0.84 M46.3 44.22 C55.32 34.98, 61.78 23.65, 84.35 0.45 M46.3 44.22 C57.54 29.74, 68.68 16.67, 84.35 0.45 M51.28 44.58 C62.01 32.04, 74.05 19.58, 89.34 0.81 M51.28 44.58 C61.46 32.88, 70.15 21.32, 89.34 0.81 M56.27 44.94 C66.48 31.64, 77.25 20.05, 94.32 1.17 M56.27 44.94 C71.01 28.04, 87.36 9.41, 94.32 1.17 M61.91 44.55 C76.37 30.26, 90.51 13.41, 99.97 0.77 M61.91 44.55 C71.91 32.81, 83.36 19.68, 99.97 0.77 M66.9 44.91 C74.98 34.26, 83.88 24.01, 104.95 1.13 M66.9 44.91 C77.49 33.63, 87.71 21.16, 104.95 1.13 M72.54 44.51 C88.45 26.69, 103.23 10.86, 110.6 0.74 M72.54 44.51 C83.82 32.8, 94.85 19.12, 110.6 0.74 M77.53 44.87 C92.15 27.69, 107.43 9.92, 115.58 1.1 M77.53 44.87 C91.52 27.74, 106.25 11.73, 115.58 1.1 M83.17 44.48 C92.73 32.72, 100.17 24.26, 121.23 0.7 M83.17 44.48 C92.81 32.5, 103.15 21.56, 121.23 0.7 M88.16 44.84 C102.01 29.79, 115.12 12.34, 126.21 1.06 M88.16 44.84 C98.82 33.52, 109.47 21.13, 126.21 1.06 M93.8 44.44 C103.76 36.64, 109.9 23.69, 131.86 0.67 M93.8 44.44 C107.33 29.37, 122.35 13.02, 131.86 0.67 M98.79 44.8 C111.28 29.55, 126.36 12.08, 134.87 3.29 M98.79 44.8 C111.76 30.07, 123.26 15.99, 134.87 3.29 M103.78 45.16 C115.87 34.93, 125.89 20.95, 137.89 5.92 M103.78 45.16 C110.74 36.85, 118.69 27.5, 137.89 5.92 M109.42 44.77 C119.77 30.11, 132.98 18.53, 138.29 11.56 M109.42 44.77 C118.77 35.41, 126.07 25.33, 138.29 11.56 M114.41 45.13 C117.88 37.63, 123.56 34.51, 138.03 17.96 M114.41 45.13 C119.13 38.6, 123.17 32.72, 138.03 17.96 M120.05 44.73 C126.63 36.93, 132.37 28.69, 138.42 23.6 M120.05 44.73 C125.05 40.82, 127.85 35.9, 138.42 23.6 M125.04 45.09 C130.18 41.54, 132.25 36.31, 138.16 30 M125.04 45.09 C130.68 39.66, 135.85 33.15, 138.16 30 M131.34 43.94 C133.53 40.3, 137.52 37.54, 138.55 35.64 M131.34 43.94 C133.81 40.71, 136.49 38.97, 138.55 35.64" stroke="#a5d8ff" stroke-width="0.5" fill="none"></path><path d="M11.2 0 C50.82 -1.58, 91.14 1.61, 127.13 0 M11.2 0 C39.11 -0.57, 68.23 -0.92, 127.13 0 M127.13 0 C134.66 -1.77, 137.3 5.03, 138.33 11.2 M127.13 0 C134.3 -2.08, 140.14 4.96, 138.33 11.2 M138.33 11.2 C139.54 20.92, 139.71 25.51, 138.33 33.61 M138.33 11.2 C139.37 17, 138.35 21.81, 138.33 33.61 M138.33 33.61 C139.92 39.21, 133.64 43.8, 127.13 44.82 M138.33 33.61 C136.83 40.11, 135.53 46.6, 127.13 44.82 M127.13 44.82 C85.58 45.71, 48.48 45.19, 11.2 44.82 M127.13 44.82 C88.99 46.1, 49.67 45.34, 11.2 44.82 M11.2 44.82 C3.81 45.75, 1.61 39.52, 0 33.61 M11.2 44.82 C2.73 45.48, -0.13 38.91, 0 33.61 M0 33.61 C0.11 27.98, -1.4 24.81, 0 11.2 M0 33.61 C0.49 26.04, -0.12 15.95, 0 11.2 M0 11.2 C-0.7 4.44, 2.58 0.42, 11.2 0 M0 11.2 C1.04 3.31, 3.37 -0.04, 11.2 0" stroke="#1e1e1e" stroke-width="1" fill="none"></path></g><g transform="translate(355.4875820180071 86.05989837646484) rotate(0 42.54408264160156 10)"><text x="42.54408264160156" y="0" font-family="Virgil, Segoe UI Emoji" font-size="16px" fill="#1e1e1e" text-anchor="middle" style="white-space: pre;" direction="ltr" dominant-baseline="text-before-edge">Deployment</text></g><g stroke-linecap="round" transform="translate(328.3650692006243 143.24219512939453) rotate(0 31 22.5)"><path d="M2.99 2.6 C2.99 2.6, 2.99 2.6, 2.99 2.6 M2.99 2.6 C2.99 2.6, 2.99 2.6, 2.99 2.6 M0.76 11.27 C2.26 9.07, 5.57 7.3, 9.95 0.7 M0.76 11.27 C2.52 8.46, 4.48 6.97, 9.95 0.7 M0.5 17.66 C5.33 11.48, 9.59 3.39, 15.59 0.3 M0.5 17.66 C5.66 13.14, 9.01 7.49, 15.59 0.3 M0.24 24.06 C6.13 18.31, 11.82 10.74, 20.58 0.66 M0.24 24.06 C8.17 14.74, 15.75 5.96, 20.58 0.66 M0.64 29.7 C8.95 18.65, 17.81 8.29, 26.22 0.27 M0.64 29.7 C7.9 21.01, 16.36 11.76, 26.22 0.27 M1.03 35.35 C9.7 24.64, 22.17 12.48, 31.21 0.63 M1.03 35.35 C12.19 24.14, 21.67 10.07, 31.21 0.63 M2.74 39.48 C12.45 28.44, 19.2 18.65, 36.85 0.24 M2.74 39.48 C12.6 29.05, 21.13 18.46, 36.85 0.24 M5.1 42.86 C15.85 31.59, 22.51 20.71, 41.84 0.6 M5.1 42.86 C18.08 28.18, 29.71 14.2, 41.84 0.6 M8.78 44.73 C21.23 25.82, 35.84 10.84, 47.48 0.2 M8.78 44.73 C20.13 33.4, 30.54 19.47, 47.48 0.2 M13.11 45.84 C23.33 32.87, 32.54 24.72, 52.47 0.56 M13.11 45.84 C22.79 35.31, 31.93 25.13, 52.47 0.56 M18.75 45.45 C29.2 33.96, 41.69 20.21, 56.14 2.43 M18.75 45.45 C29.73 33.02, 40.25 18.69, 56.14 2.43 M23.74 45.81 C36.92 31.36, 49.89 16.18, 59.82 4.3 M23.74 45.81 C34.01 34.4, 43.96 23.81, 59.82 4.3 M29.38 45.41 C39.35 34.83, 49.89 22.69, 61.53 8.43 M29.38 45.41 C36.37 38.05, 43.64 29.58, 61.53 8.43 M34.37 45.77 C42.93 35, 52.41 26.98, 62.58 13.32 M34.37 45.77 C40.68 38.4, 45.37 32.87, 62.58 13.32 M40.01 45.38 C45.66 38.95, 49.17 32.4, 62.32 19.72 M40.01 45.38 C46.59 37.1, 53.22 28.52, 62.32 19.72 M45 45.74 C47.79 39.1, 54.59 36.57, 62.71 25.36 M45 45.74 C49.16 39.72, 55.01 34.23, 62.71 25.36 M50.64 45.35 C53.79 42.61, 56.21 39.54, 62.45 31.76 M50.64 45.35 C54.3 40.26, 59.61 34.94, 62.45 31.76 M58.25 42.69 C58.61 42.24, 59.46 41.35, 59.56 41.18 M58.25 42.69 C58.69 42.16, 59.07 41.84, 59.56 41.18" stroke="#ffec99" stroke-width="0.5" fill="none"></path><path d="M11.25 0 C21.29 1.91, 33.69 -1.48, 50.75 0 M11.25 0 C26.11 -0.32, 39.16 -0.9, 50.75 0 M50.75 0 C57.22 1.29, 61.74 1.94, 62 11.25 M50.75 0 C60.06 1.22, 63.27 3.88, 62 11.25 M62 11.25 C63.5 18.5, 60.56 29.59, 62 33.75 M62 11.25 C62.17 17.03, 63.01 20.48, 62 33.75 M62 33.75 C61.04 40.23, 56.95 44.15, 50.75 45 M62 33.75 C62.93 43.03, 59.3 43.1, 50.75 45 M50.75 45 C37.97 44.69, 22.77 43.7, 11.25 45 M50.75 45 C36.91 45.44, 24.22 45.81, 11.25 45 M11.25 45 C5.36 43.43, -0.87 41.83, 0 33.75 M11.25 45 C3.62 42.82, -2.03 41.5, 0 33.75 M0 33.75 C-1.39 26.51, 1.62 16.7, 0 11.25 M0 33.75 C-0.33 26.69, -0.43 21.08, 0 11.25 M0 11.25 C-1.15 4.17, 4.66 -0.37, 11.25 0 M0 11.25 C-0.37 3.71, 1.76 0.84, 11.25 0" stroke="#1e1e1e" stroke-width="1" fill="none"></path></g><g transform="translate(340.9810283681048 155.74219512939453) rotate(0 18.38404083251953 10)"><text x="18.38404083251953" y="0" font-family="Virgil, Segoe UI Emoji" font-size="16px" fill="#1e1e1e" text-anchor="middle" style="white-space: pre;" direction="ltr" dominant-baseline="text-before-edge">pod-1</text></g><g transform="translate(226.0188549061907 87.14714431762695) rotate(0 34.09607696533203 10)"><text x="34.09607696533203" y="0" font-family="Virgil, Segoe UI Emoji" font-size="16px" fill="#1e1e1e" text-anchor="middle" style="white-space: pre;" direction="ltr" dominant-baseline="text-before-edge">high-level</text></g><g transform="translate(233.69163780413993 153) rotate(0 31.840057373046875 10)"><text x="31.840057373046875" y="0" font-family="Virgil, Segoe UI Emoji" font-size="16px" fill="#1e1e1e" text-anchor="middle" style="white-space: pre;" direction="ltr" dominant-baseline="text-before-edge">low-level</text></g><g stroke-linecap="round" transform="translate(508.1983211537493 30.166656494140625) rotate(0 137 90.5)"><path d="M32 0 C76.23 1.9, 119.76 0.33, 242 0 M32 0 C76.33 -2, 121.58 -0.73, 242 0 M242 0 C264.43 0.11, 275.87 11.86, 274 32 M242 0 C265.36 1.57, 272.16 8.85, 274 32 M274 32 C274.81 70.67, 274.52 111.13, 274 149 M274 32 C272.79 55.73, 273.84 81.09, 274 149 M274 149 C274.92 168.68, 264.58 179.54, 242 181 M274 149 C274.2 172.09, 262.93 181.73, 242 181 M242 181 C194.53 180.61, 144.19 181.66, 32 181 M242 181 C168.85 179.8, 96.42 178.71, 32 181 M32 181 C8.9 181.22, 1.03 170.46, 0 149 M32 181 C9.64 179.42, 0.78 172.22, 0 149 M0 149 C2.1 120.59, -0.96 92.48, 0 32 M0 149 C1.13 109.56, 0.51 70.48, 0 32 M0 32 C-1.73 11.4, 10.78 -1.59, 32 0 M0 32 C-1.83 10.95, 10.17 -0.2, 32 0" stroke="#1e1e1e" stroke-width="1" fill="none"></path></g><g transform="translate(555.3261287709367 35.166656494140625) rotate(0 89.8721923828125 10)"><text x="89.8721923828125" y="0" font-family="Virgil, Segoe UI Emoji" font-size="16px" fill="#1e1e1e" text-anchor="middle" style="white-space: pre;" direction="ltr" dominant-baseline="text-before-edge">virtual cluster: beispiel</text></g><g stroke-linecap="round" transform="translate(625.6983516713274 75.50780487060547) rotate(0 69.16665649414062 25)"><path d="M3.33 2.89 C3.33 2.89, 3.33 2.89, 3.33 2.89 M3.33 2.89 C3.33 2.89, 3.33 2.89, 3.33 2.89 M1.1 11.55 C3.04 7.82, 7.65 4.82, 10.28 0.99 M1.1 11.55 C4.63 6.96, 7.51 3.26, 10.28 0.99 M0.84 17.95 C5.21 13.48, 7.23 9.47, 15.93 0.59 M0.84 17.95 C4.23 14.47, 6.77 11.46, 15.93 0.59 M1.23 23.6 C5.93 17.37, 11.86 10.37, 20.91 0.95 M1.23 23.6 C6.61 16.64, 12.34 10.67, 20.91 0.95 M0.97 29.99 C10.07 20.15, 18.12 13.16, 26.56 0.56 M0.97 29.99 C10.75 19.9, 19.84 9.54, 26.56 0.56 M0.71 36.39 C14.93 21.43, 23.54 6.81, 31.54 0.92 M0.71 36.39 C12.08 22.42, 23.94 8.38, 31.54 0.92 M1.1 42.03 C13.72 28.04, 26.01 11.77, 37.19 0.52 M1.1 42.03 C8.12 32.77, 15.23 25.32, 37.19 0.52 M2.81 46.17 C9.53 36.79, 17.53 28.21, 42.17 0.88 M2.81 46.17 C17.41 27.59, 34 10.33, 42.17 0.88 M5.83 48.79 C16.15 39.09, 21.21 28.11, 47.82 0.49 M5.83 48.79 C18.63 32.86, 33.91 16.59, 47.82 0.49 M10.16 49.91 C19.42 39.44, 29.52 28.06, 52.8 0.85 M10.16 49.91 C20.09 39.78, 28.7 29.83, 52.8 0.85 M15.8 49.51 C30.58 32.16, 41.44 19.54, 57.79 1.21 M15.8 49.51 C30.48 33.06, 44.69 16.87, 57.79 1.21 M20.79 49.87 C31.17 38.43, 43.21 24.77, 63.43 0.82 M20.79 49.87 C36.95 32.49, 52.1 12.62, 63.43 0.82 M25.78 50.23 C39.3 36.75, 50.59 22.1, 68.42 1.18 M25.78 50.23 C39.89 33.7, 55.64 14.83, 68.42 1.18 M31.42 49.84 C46.84 29.35, 66.01 9.64, 74.06 0.78 M31.42 49.84 C47.62 30.04, 64.02 10.85, 74.06 0.78 M36.41 50.2 C47.01 35.99, 57 23.97, 79.05 1.14 M36.41 50.2 C48.77 35.69, 63.26 20.38, 79.05 1.14 M42.05 49.8 C53.57 36.4, 66.03 21.94, 84.69 0.75 M42.05 49.8 C53.76 36.4, 65.36 24.56, 84.69 0.75 M47.04 50.16 C61.99 33.55, 76.47 18.43, 89.68 1.11 M47.04 50.16 C58.32 39.23, 67.41 25.89, 89.68 1.11 M52.68 49.77 C60.29 39.71, 72.15 25.63, 94.67 1.47 M52.68 49.77 C66.23 34.07, 79.98 18.2, 94.67 1.47 M57.67 50.13 C67.79 37.66, 78.32 27.62, 100.31 1.07 M57.67 50.13 C68.34 38.36, 77.37 26.59, 100.31 1.07 M62.65 50.49 C74.81 36.63, 89.58 17.91, 105.3 1.43 M62.65 50.49 C78.45 32.08, 94.8 13.56, 105.3 1.43 M68.3 50.09 C82.28 34.92, 95.46 14.2, 110.94 1.04 M68.3 50.09 C79 38.32, 89.69 24.66, 110.94 1.04 M73.28 50.45 C83.31 36.12, 97.52 26.27, 115.93 1.4 M73.28 50.45 C89.42 31.6, 106.56 13.49, 115.93 1.4 M78.93 50.06 C92.11 36.58, 102.94 21.18, 121.57 1 M78.93 50.06 C90.63 35.82, 104.14 22.55, 121.57 1 M83.91 50.42 C99.78 31.21, 114.49 15.06, 126.56 1.36 M83.91 50.42 C99.03 32.66, 114.95 13.08, 126.56 1.36 M89.56 50.03 C99.73 40.37, 108.42 25.96, 132.2 0.97 M89.56 50.03 C98.95 38.81, 110.72 25.66, 132.2 0.97 M94.54 50.39 C109.61 34.04, 121.6 16.15, 135.22 3.59 M94.54 50.39 C109.08 31.59, 125.62 14.08, 135.22 3.59 M100.19 49.99 C108.99 39.96, 118.96 28.08, 137.58 6.97 M100.19 49.99 C109.14 40.24, 117.35 30.76, 137.58 6.97 M105.17 50.35 C118.4 34.36, 129.93 23.04, 138.63 11.86 M105.17 50.35 C113.65 40.49, 121.97 33.25, 138.63 11.86 M110.16 50.71 C117.07 42.57, 127.04 30.11, 138.37 18.26 M110.16 50.71 C117.96 40.98, 125.04 33.47, 138.37 18.26 M115.8 50.32 C125.33 39.81, 131.21 28.62, 138.77 23.9 M115.8 50.32 C123.96 41.27, 133.92 30.65, 138.77 23.9 M120.79 50.68 C126.64 44.41, 134.09 34.89, 138.5 30.3 M120.79 50.68 C125.22 45.72, 129.26 40.55, 138.5 30.3 M126.43 50.28 C131.84 45.63, 135.34 41.41, 138.24 36.7 M126.43 50.28 C129.2 46.81, 132.56 42.58, 138.24 36.7" stroke="#a5d8ff" stroke-width="0.5" fill="none"></path><path d="M12.5 0 C44.19 -0.98, 75.34 -2.07, 125.83 0 M12.5 0 C54.62 1.56, 95.71 1.08, 125.83 0 M125.83 0 C136.04 1.2, 140.09 5.53, 138.33 12.5 M125.83 0 C132.32 -1.81, 139.06 2.46, 138.33 12.5 M138.33 12.5 C139.93 24.01, 136.67 31.39, 138.33 37.5 M138.33 12.5 C138.58 19.5, 138.63 24.13, 138.33 37.5 M138.33 37.5 C139.58 44.37, 134.34 51.52, 125.83 50 M138.33 37.5 C137.93 46.56, 132.63 50.83, 125.83 50 M125.83 50 C88.42 49.45, 51.53 50.98, 12.5 50 M125.83 50 C100.65 49.38, 74.69 50.44, 12.5 50 M12.5 50 C5.2 50.13, -0.89 44.46, 0 37.5 M12.5 50 C4.94 51.88, -1.41 45.59, 0 37.5 M0 37.5 C-1.33 28.41, 0.46 19.59, 0 12.5 M0 37.5 C-0.27 29.45, -0.98 21.81, 0 12.5 M0 12.5 C0.12 2.57, 2.58 0.25, 12.5 0 M0 12.5 C-0.5 3.97, 4.89 -1.59, 12.5 0" stroke="#1e1e1e" stroke-width="1" fill="none"></path></g><g transform="translate(631.8568904896867 80.50780487060547) rotate(0 63.00811767578125 20)"><text x="63.00811767578125" y="0" font-family="Virgil, Segoe UI Emoji" font-size="16px" fill="#1e1e1e" text-anchor="middle" style="white-space: pre;" direction="ltr" dominant-baseline="text-before-edge">CustomResource</text><text x="63.00811767578125" y="20" font-family="Virgil, Segoe UI Emoji" font-size="16px" fill="#1e1e1e" text-anchor="middle" style="white-space: pre;" direction="ltr" dominant-baseline="text-before-edge">Definition</text></g><g transform="translate(522.85219841205 89.00390243530273) rotate(0 34.09607696533203 10)"><text x="34.09607696533203" y="0" font-family="Virgil, Segoe UI Emoji" font-size="16px" fill="#1e1e1e" text-anchor="middle" style="white-space: pre;" direction="ltr" dominant-baseline="text-before-edge">high-level</text></g><g transform="translate(530.5249813099992 154.85675811767578) rotate(0 31.840057373046875 10)"><text x="31.840057373046875" y="0" font-family="Virgil, Segoe UI Emoji" font-size="16px" fill="#1e1e1e" text-anchor="middle" style="white-space: pre;" direction="ltr" dominant-baseline="text-before-edge">low-level</text></g><g stroke-linecap="round" transform="translate(396.0316951771868 143.82553100585938) rotate(0 33.5 22.5)"><path d="M2.99 2.6 C2.99 2.6, 2.99 2.6, 2.99 2.6 M2.99 2.6 C2.99 2.6, 2.99 2.6, 2.99 2.6 M3.39 8.25 C5.46 5.56, 7.24 1.92, 9.95 0.7 M3.39 8.25 C5.68 6.31, 7.07 3.82, 9.95 0.7 M3.13 14.64 C6.19 11.9, 9.17 7.66, 13.62 2.57 M3.13 14.64 C7.34 9.6, 11.27 5.03, 13.62 2.57 M2.87 21.04 C7.93 13.72, 13.56 7.08, 19.27 2.17 M2.87 21.04 C7.21 15.69, 12.74 9.82, 19.27 2.17 M2.6 27.44 C8.4 20.13, 17.94 11.34, 24.25 2.53 M2.6 27.44 C10.85 19.65, 17.33 9.04, 24.25 2.53 M1.69 34.59 C10 25.18, 15.3 17.07, 29.9 2.14 M1.69 34.59 C10.01 25.97, 16.96 17.19, 29.9 2.14 M2.74 39.48 C12.29 29.51, 17.8 19.94, 34.88 2.5 M2.74 39.48 C14.17 26.55, 24.3 14.28, 34.88 2.5 M4.44 43.61 C15.93 25.85, 29.54 12.03, 40.53 2.11 M4.44 43.61 C15.05 33.12, 24.74 20.01, 40.53 2.11 M8.78 44.73 C18.34 32.52, 26.9 25.13, 45.51 2.47 M8.78 44.73 C17.83 34.88, 26.37 25.4, 45.51 2.47 M12.45 46.6 C23.32 34.65, 36.21 20.43, 51.16 2.07 M12.45 46.6 C23.82 33.71, 34.73 18.93, 51.16 2.07 M18.09 46.2 C32.48 30.36, 46.68 13.78, 57.46 0.92 M18.09 46.2 C29.27 33.77, 40.11 22.17, 57.46 0.92 M23.08 46.56 C34.74 34.02, 47.03 19.88, 61.13 2.79 M23.08 46.56 C31.37 37.72, 39.91 27.77, 61.13 2.79 M28.72 46.17 C39.76 32.43, 51.76 21.51, 65.46 3.91 M28.72 46.17 C36.74 36.8, 43.22 29.21, 65.46 3.91 M33.71 46.53 C41.66 37.24, 47.58 27.91, 67.17 8.04 M33.71 46.53 C43.81 34.3, 53.91 21.72, 67.17 8.04 M39.35 46.13 C45.1 36.07, 54.85 30.15, 68.22 12.93 M39.35 46.13 C46.69 36.6, 55.68 27.5, 68.22 12.93 M44.34 46.49 C50.8 40.08, 56.4 33.32, 68.61 18.57 M44.34 46.49 C52.64 35.9, 62.81 25.07, 68.61 18.57 M49.98 46.1 C55.67 39.29, 66.17 28.07, 68.35 24.97 M49.98 46.1 C55.93 39.09, 61.2 34.19, 68.35 24.97 M56.28 44.95 C59.51 42.54, 61.68 39.85, 68.75 30.61 M56.28 44.95 C59.31 41.5, 62.12 38.15, 68.75 30.61 M63.24 43.05 C64.4 41.29, 66.79 37.98, 69.14 36.25 M63.24 43.05 C64.93 40.94, 66.79 39.41, 69.14 36.25" stroke="#ffec99" stroke-width="0.5" fill="none"></path><path d="M11.25 0 C20.5 1.63, 34.43 1.16, 55.75 0 M11.25 0 C25.73 0.41, 37.65 -1.06, 55.75 0 M55.75 0 C63.88 -1.48, 68.94 5.43, 67 11.25 M55.75 0 C63.13 1.59, 68.82 1.6, 67 11.25 M67 11.25 C66.04 17.73, 68.43 23.51, 67 33.75 M67 11.25 C67.23 16.9, 66.97 21.34, 67 33.75 M67 33.75 C65.67 41.98, 63.89 46.73, 55.75 45 M67 33.75 C65.72 41.49, 63.34 46.07, 55.75 45 M55.75 45 C39.39 44.69, 19.98 43.04, 11.25 45 M55.75 45 C41.47 44.34, 28.41 45.85, 11.25 45 M11.25 45 C2.52 44.79, 0.71 43.23, 0 33.75 M11.25 45 C3.17 43.75, -0.81 42.07, 0 33.75 M0 33.75 C-0.42 27.97, -0.08 21.11, 0 11.25 M0 33.75 C-0.81 26.3, -0.23 18.52, 0 11.25 M0 11.25 C0.63 2.36, 4.47 1.53, 11.25 0 M0 11.25 C-1.72 2.02, 3.24 0.03, 11.25 0" stroke="#1e1e1e" stroke-width="1" fill="none"></path></g><g transform="translate(411.53165703021415 156.32553100585938) rotate(0 18.000038146972656 10)"><text x="18.000038146972656" y="0" font-family="Virgil, Segoe UI Emoji" font-size="16px" fill="#1e1e1e" text-anchor="middle" style="white-space: pre;" direction="ltr" dominant-baseline="text-before-edge">svc-1</text></g><g stroke-linecap="round" transform="translate(626.8650692006242 142.54167556762695) rotate(0 31 22.5)"><path d="M2.99 2.6 C2.99 2.6, 2.99 2.6, 2.99 2.6 M2.99 2.6 C2.99 2.6, 2.99 2.6, 2.99 2.6 M0.76 11.27 C2.99 6.23, 7.03 2.8, 9.95 0.7 M0.76 11.27 C4.17 6.94, 7.78 2.19, 9.95 0.7 M0.5 17.66 C6.33 10.78, 13.11 4.97, 15.59 0.3 M0.5 17.66 C4.07 13.19, 7.28 10.41, 15.59 0.3 M0.24 24.06 C5.7 16.28, 13.19 9.85, 20.58 0.66 M0.24 24.06 C5.75 17.96, 12.59 11.06, 20.58 0.66 M0.64 29.7 C9.84 20.97, 18.68 12.2, 26.22 0.27 M0.64 29.7 C6.79 20.84, 13.25 14.92, 26.22 0.27 M1.03 35.35 C7.54 26.03, 13.68 20.9, 31.21 0.63 M1.03 35.35 C10.29 24.66, 18.59 13.19, 31.21 0.63 M2.74 39.48 C10.09 28.16, 20.85 17.4, 36.85 0.24 M2.74 39.48 C14.16 25.67, 26.1 14.47, 36.85 0.24 M5.1 42.86 C15.04 30.02, 27.95 14.84, 41.84 0.6 M5.1 42.86 C16.68 28.39, 27.68 16.08, 41.84 0.6 M8.78 44.73 C20.85 32.47, 32.14 14.91, 47.48 0.2 M8.78 44.73 C19.23 33.07, 29.29 20.26, 47.48 0.2 M13.11 45.84 C22.26 35.85, 32.06 24.64, 52.47 0.56 M13.11 45.84 C26.24 28.84, 41.71 13.92, 52.47 0.56 M18.75 45.45 C28.19 34.97, 38.18 21.33, 56.14 2.43 M18.75 45.45 C30.66 32.72, 41.54 19.77, 56.14 2.43 M23.74 45.81 C33.54 35.27, 38.19 26.8, 59.82 4.3 M23.74 45.81 C35.38 32.74, 46.43 19.92, 59.82 4.3 M29.38 45.41 C42.8 32.4, 51.46 19.81, 61.53 8.43 M29.38 45.41 C35.88 37.77, 42.88 29.84, 61.53 8.43 M34.37 45.77 C44.33 32.2, 55.23 21.18, 62.58 13.32 M34.37 45.77 C41.11 36.43, 48.9 29, 62.58 13.32 M40.01 45.38 C47.57 39.01, 54.11 28.76, 62.32 19.72 M40.01 45.38 C44.77 40.05, 48.97 34.64, 62.32 19.72 M45 45.74 C49.89 40.65, 57.91 33.63, 62.71 25.36 M45 45.74 C50.75 39.31, 57.27 32.28, 62.71 25.36 M50.64 45.35 C55.99 39.65, 57.48 35.93, 62.45 31.76 M50.64 45.35 C55.14 40.99, 57.79 36.56, 62.45 31.76 M58.25 42.69 C58.73 42.26, 59.15 41.4, 59.56 41.18 M58.25 42.69 C58.69 42.17, 59.25 41.5, 59.56 41.18" stroke="#ffec99" stroke-width="0.5" fill="none"></path><path d="M11.25 0 C23.66 0.79, 34.05 1.56, 50.75 0 M11.25 0 C24.66 -1.06, 39.99 -1.01, 50.75 0 M50.75 0 C60.19 1.68, 61.9 5.14, 62 11.25 M50.75 0 C60.07 -2.15, 60.9 2.58, 62 11.25 M62 11.25 C63.45 17.45, 60.25 23.06, 62 33.75 M62 11.25 C61.85 16.67, 61.35 21.83, 62 33.75 M62 33.75 C62.64 42.98, 57.14 45.21, 50.75 45 M62 33.75 C62.09 42.32, 60.1 43.2, 50.75 45 M50.75 45 C38.73 43.21, 30.72 46.01, 11.25 45 M50.75 45 C38.98 45.55, 25.92 44.62, 11.25 45 M11.25 45 C4.46 46.98, -0.51 40.16, 0 33.75 M11.25 45 C2.94 45.82, -1.32 41.74, 0 33.75 M0 33.75 C0.01 24.25, 0.77 18.33, 0 11.25 M0 33.75 C-0.04 28.7, 0.49 23.14, 0 11.25 M0 11.25 C0.72 5.28, 2.25 -1.5, 11.25 0 M0 11.25 C-0.51 3.78, 5.93 -1.42, 11.25 0" stroke="#1e1e1e" stroke-width="1" fill="none"></path></g><g transform="translate(639.4810283681047 155.04167556762695) rotate(0 18.38404083251953 10)"><text x="18.38404083251953" y="0" font-family="Virgil, Segoe UI Emoji" font-size="16px" fill="#1e1e1e" text-anchor="middle" style="white-space: pre;" direction="ltr" dominant-baseline="text-before-edge">pod-1</text></g><g stroke-linecap="round" transform="translate(694.5316951771867 143.1250114440918) rotate(0 33.5 22.5)"><path d="M2.99 2.6 C2.99 2.6, 2.99 2.6, 2.99 2.6 M2.99 2.6 C2.99 2.6, 2.99 2.6, 2.99 2.6 M0.76 11.27 C3.41 7.12, 7.74 5.98, 9.95 0.7 M0.76 11.27 C3.88 6.86, 7.84 3.78, 9.95 0.7 M0.5 17.66 C7.01 12.06, 8.93 6.76, 15.59 0.3 M0.5 17.66 C4.21 13.96, 7.02 9.93, 15.59 0.3 M0.24 24.06 C6.13 17.98, 10.95 9.92, 20.58 0.66 M0.24 24.06 C8.21 15.99, 15.44 6.14, 20.58 0.66 M0.64 29.7 C10.95 20.76, 18.5 9.76, 26.22 0.27 M0.64 29.7 C10.19 19.3, 19.98 7.75, 26.22 0.27 M1.03 35.35 C6.96 28.98, 14.33 22.35, 31.21 0.63 M1.03 35.35 C9.55 23.85, 18.83 14.88, 31.21 0.63 M2.74 39.48 C12.27 27.89, 21.18 20.8, 36.85 0.24 M2.74 39.48 C11.08 31.98, 18.06 21.29, 36.85 0.24 M5.1 42.86 C12.46 32.32, 20.76 26.29, 41.84 0.6 M5.1 42.86 C19.06 26.73, 34.24 10.03, 41.84 0.6 M8.78 44.73 C16.16 32.84, 25.56 24.83, 47.48 0.2 M8.78 44.73 C19.51 31.37, 29.59 19.15, 47.48 0.2 M13.11 45.84 C28.02 29.14, 43.88 11.33, 52.47 0.56 M13.11 45.84 C28.69 29.83, 42.12 12.76, 52.47 0.56 M18.75 45.45 C31.64 28.91, 45.75 15.17, 57.46 0.92 M18.75 45.45 C29.33 33.46, 39.51 20.62, 57.46 0.92 M23.74 45.81 C33.23 32.46, 46.75 19.39, 61.79 2.04 M23.74 45.81 C37.66 30.02, 52.52 13.5, 61.79 2.04 M29.38 45.41 C36.18 36.85, 45.43 26.18, 64.81 4.66 M29.38 45.41 C36.63 37.16, 46.01 27.68, 64.81 4.66 M34.37 45.77 C43.13 35.52, 50.63 25.58, 66.51 8.79 M34.37 45.77 C42.72 36.47, 51.66 25.79, 66.51 8.79 M40.01 45.38 C46.07 37.33, 50.97 28.56, 66.91 14.44 M40.01 45.38 C46.52 37.16, 53.96 29.6, 66.91 14.44 M45 45.74 C54.49 37.59, 60.87 26.02, 67.3 20.08 M45 45.74 C52.92 37.1, 59.11 28.73, 67.3 20.08 M50.64 45.35 C56.12 37.2, 63.18 32.88, 67.04 26.48 M50.64 45.35 C53.08 41.73, 57.95 37.94, 67.04 26.48 M56.28 44.95 C59.16 39.61, 64.77 36.13, 66.78 32.88 M56.28 44.95 C59.92 40.53, 63.26 36.4, 66.78 32.88 M63.24 43.05 C63.64 42.56, 64.21 42.05, 64.55 41.54 M63.24 43.05 C63.46 42.75, 63.8 42.39, 64.55 41.54" stroke="#ffec99" stroke-width="0.5" fill="none"></path><path d="M11.25 0 C28.21 1.63, 46.14 1.51, 55.75 0 M11.25 0 C27.94 -0.39, 44.98 1.19, 55.75 0 M55.75 0 C63.15 1.39, 68.59 1.88, 67 11.25 M55.75 0 C62.15 -1.17, 65.5 2.77, 67 11.25 M67 11.25 C65.52 20.16, 65.71 26.75, 67 33.75 M67 11.25 C66.29 20.08, 67.28 29.04, 67 33.75 M67 33.75 C65.89 41.46, 63.33 45.93, 55.75 45 M67 33.75 C68.85 39.45, 62.25 45.66, 55.75 45 M55.75 45 C42.88 45.64, 29.7 43.72, 11.25 45 M55.75 45 C44.84 45.26, 35.51 46.35, 11.25 45 M11.25 45 C3.24 43.91, -0.7 41.96, 0 33.75 M11.25 45 C2.43 45.49, 1.04 40.82, 0 33.75 M0 33.75 C0.74 27.48, -1.59 19.38, 0 11.25 M0 33.75 C0.36 26.03, 0.41 20.46, 0 11.25 M0 11.25 C-1.5 2.25, 3.31 0.03, 11.25 0 M0 11.25 C2.18 2.33, 2.98 1.23, 11.25 0" stroke="#1e1e1e" stroke-width="1" fill="none"></path></g><g transform="translate(710.0316570302141 155.6250114440918) rotate(0 18.000038146972656 10)"><text x="18.000038146972656" y="0" font-family="Virgil, Segoe UI Emoji" font-size="16px" fill="#1e1e1e" text-anchor="middle" style="white-space: pre;" direction="ltr" dominant-baseline="text-before-edge">svc-1</text></g><g stroke-linecap="round" transform="translate(221.78175621234305 381.2096538543701) rotate(0 80 22.5)"><path d="M11.25 0 C61.27 0.47, 110.25 -2.89, 148.75 0 M11.25 0 C42.62 1.86, 72 1.71, 148.75 0 M148.75 0 C157.84 -1.87, 159.04 2.73, 160 11.25 M148.75 0 C154.75 -0.98, 160.93 5.53, 160 11.25 M160 11.25 C158.35 19.2, 161.34 26.46, 160 33.75 M160 11.25 C160.17 19.58, 159.3 26.28, 160 33.75 M160 33.75 C160.08 42.18, 157.86 43.43, 148.75 45 M160 33.75 C159 41.91, 156.12 42.82, 148.75 45 M148.75 45 C119.8 44.82, 89.21 46.39, 11.25 45 M148.75 45 C96.59 45.84, 43.47 44.31, 11.25 45 M11.25 45 C3.05 45.71, -1.15 41.67, 0 33.75 M11.25 45 C4.79 44.57, -0.37 41.21, 0 33.75 M0 33.75 C-1.67 27.36, 0.16 23.71, 0 11.25 M0 33.75 C0.29 27.96, -0.82 19.89, 0 11.25 M0 11.25 C-0.44 3.78, 5.64 -1.23, 11.25 0 M0 11.25 C-0.77 4.98, 2.54 0.61, 11.25 0" stroke="#1e1e1e" stroke-width="1" fill="none"></path></g><g transform="translate(238.92562370501884 393.7096538543701) rotate(0 62.85613250732422 10)"><text x="62.85613250732422" y="0" font-family="Virgil, Segoe UI Emoji" font-size="16px" fill="#1e1e1e" text-anchor="middle" style="white-space: pre;" direction="ltr" dominant-baseline="text-before-edge">vc-example-pod-1</text></g><g stroke-linecap="round" transform="translate(255.08867972356512 433.7871379120163) rotate(0 77 23)"><path d="M11.5 0 C64.43 -2.76, 113.07 -0.52, 142.5 0 M11.5 0 C41.05 -0.41, 71.49 -2.04, 142.5 0 M142.5 0 C149.21 -1.02, 152.7 2.99, 154 11.5 M142.5 0 C151.1 1.78, 155.05 1.93, 154 11.5 M154 11.5 C155.36 19.48, 154.47 26.83, 154 34.5 M154 11.5 C153.52 19.34, 154.11 27.43, 154 34.5 M154 34.5 C155.61 40.6, 149.29 46.58, 142.5 46 M154 34.5 C153.87 39.99, 148.13 46.25, 142.5 46 M142.5 46 C95.06 46.09, 52 44.19, 11.5 46 M142.5 46 C104.32 46.75, 66.3 47.65, 11.5 46 M11.5 46 C2.68 46.42, 0.91 41.79, 0 34.5 M11.5 46 C3.46 45.96, -1.99 43.01, 0 34.5 M0 34.5 C0.43 27.03, 0.01 21.06, 0 11.5 M0 34.5 C-0.83 28.44, -0.3 23.9, 0 11.5 M0 11.5 C1.89 2.6, 3.16 1.07, 11.5 0 M0 11.5 C-1.21 4.45, 4.48 1.84, 11.5 0" stroke="#1e1e1e" stroke-width="1" fill="none"></path></g><g transform="translate(269.6165499017878 446.7871379120163) rotate(0 62.472129821777344 10)"><text x="62.472129821777344" y="0" font-family="Virgil, Segoe UI Emoji" font-size="16px" fill="#1e1e1e" text-anchor="middle" style="white-space: pre;" direction="ltr" dominant-baseline="text-before-edge">vc-example-svc-1</text></g><g stroke-linecap="round" transform="translate(573.1564736559012 378.9909151294711) rotate(0 68 22.5)"><path d="M11.25 0 C53.71 1.54, 97.84 2.85, 124.75 0 M11.25 0 C55.62 -1.72, 97.93 -1.3, 124.75 0 M124.75 0 C130.95 -0.85, 136.81 5.3, 136 11.25 M124.75 0 C133.3 -1.9, 137.43 2.07, 136 11.25 M136 11.25 C136.81 16.86, 136.9 25.77, 136 33.75 M136 11.25 C135.91 20.41, 136.68 27.85, 136 33.75 M136 33.75 C135.13 41.83, 132.13 43.11, 124.75 45 M136 33.75 C133.97 41.5, 133.44 45.15, 124.75 45 M124.75 45 C97.38 44.15, 66.53 46.09, 11.25 45 M124.75 45 C79.14 44.74, 33.65 44.6, 11.25 45 M11.25 45 C4.66 44.63, -0.32 41.22, 0 33.75 M11.25 45 C1.76 45.84, 0.13 39.42, 0 33.75 M0 33.75 C-0.2 29.41, -1.41 24.55, 0 11.25 M0 33.75 C-0.05 25.3, 1.12 16.2, 0 11.25 M0 11.25 C-0.67 4.82, 2.7 0.53, 11.25 0 M0 11.25 C0.65 5.59, 1.56 1.27, 11.25 0" stroke="#1e1e1e" stroke-width="1" fill="none"></path></g><g transform="translate(581.284342308245 391.4909151294711) rotate(0 59.87213134765625 10)"><text x="59.87213134765625" y="0" font-family="Virgil, Segoe UI Emoji" font-size="16px" fill="#1e1e1e" text-anchor="middle" style="white-space: pre;" direction="ltr" dominant-baseline="text-before-edge">vc-beispiel-pod-1</text></g><g stroke-linecap="round" transform="translate(626.7816951771867 432.93362617492676) rotate(0 70.5 22.5)"><path d="M11.25 0 C35.82 1.57, 65.02 -0.47, 129.75 0 M11.25 0 C54.53 0.6, 98.11 0.68, 129.75 0 M129.75 0 C138.06 1.55, 141.92 2.09, 141 11.25 M129.75 0 C138.68 -1.68, 141.2 5.5, 141 11.25 M141 11.25 C141.8 18.25, 142.8 22.86, 141 33.75 M141 11.25 C141.81 17.45, 140.57 25.5, 141 33.75 M141 33.75 C140.88 39.36, 135.48 45.22, 129.75 45 M141 33.75 C142.19 41.4, 136.23 43.42, 129.75 45 M129.75 45 C89.99 44.98, 52.62 43.77, 11.25 45 M129.75 45 C100.06 45.63, 71.98 45.23, 11.25 45 M11.25 45 C3.43 44.97, -1.73 41.98, 0 33.75 M11.25 45 C3.88 43.17, -1.83 41.53, 0 33.75 M0 33.75 C-1.37 28.21, 1.55 19.73, 0 11.25 M0 33.75 C1 28.08, -0.29 24.17, 0 11.25 M0 11.25 C-1.05 4.28, 4.31 1.6, 11.25 0 M0 11.25 C-2.19 5.02, 2.69 -0.22, 11.25 0" stroke="#1e1e1e" stroke-width="1" fill="none"></path></g><g transform="translate(637.7935665150774 445.43362617492676) rotate(0 59.488128662109375 10)"><text x="59.488128662109375" y="0" font-family="Virgil, Segoe UI Emoji" font-size="16px" fill="#1e1e1e" text-anchor="middle" style="white-space: pre;" direction="ltr" dominant-baseline="text-before-edge">vc-beispiel-svc-1</text></g><g stroke-linecap="round"><g transform="translate(357.19838218890555 191.5078125) rotate(0 0.3196061129298755 31.653106689453153)"><path d="M1.16 1.01 C1.2 6.97, 0.55 24.66, 0.58 34.86 C0.61 45.05, 1.48 57.54, 1.36 62.18 M0.32 0.49 C0.15 6.19, -0.53 22.77, -0.4 33.17 C-0.27 43.57, 1.06 57.86, 1.09 62.91" stroke="#f08c00" stroke-width="2" fill="none"></path></g><g transform="translate(357.19838218890555 191.5078125) rotate(0 0.3196061129298755 31.653106689453153)"><path d="M-4.55 49.4 C-1.55 53.75, 0.1 59.46, 1.09 62.91 M-4.55 49.4 C-3.93 51.91, -1.99 55.58, 1.09 62.91" stroke="#f08c00" stroke-width="2" fill="none"></path></g><g transform="translate(357.19838218890555 191.5078125) rotate(0 0.3196061129298755 31.653106689453153)"><path d="M5.45 48.94 C5.13 53.54, 3.47 59.4, 1.09 62.91 M5.45 48.94 C4.01 51.49, 3.88 55.25, 1.09 62.91" stroke="#f08c00" stroke-width="2" fill="none"></path></g></g><mask></mask><g stroke-linecap="round"><g transform="translate(427.1983211537493 195.34893798828125) rotate(0 -0.8262068753513745 29.47790527343753)"><path d="M-0.06 0.83 C-0.37 5.61, -0.35 20.11, -0.7 29.7 C-1.05 39.28, -1.88 53.55, -2.16 58.35 M-1.55 0.22 C-2.04 5.63, -0.87 20.79, -1.15 30.64 C-1.43 40.5, -3 54.57, -3.23 59.34" stroke="#f08c00" stroke-width="2" fill="none"></path></g><g transform="translate(427.1983211537493 195.34893798828125) rotate(0 -0.8262068753513745 29.47790527343753)"><path d="M-7.01 45.79 C-4.42 52.29, -5.21 55.88, -3.23 59.34 M-7.01 45.79 C-5.87 49.73, -4.89 51.98, -3.23 59.34" stroke="#f08c00" stroke-width="2" fill="none"></path></g><g transform="translate(427.1983211537493 195.34893798828125) rotate(0 -0.8262068753513745 29.47790527343753)"><path d="M2.59 46.53 C1.36 52.73, -3.24 56.02, -3.23 59.34 M2.59 46.53 C1.34 50.24, -0.07 52.31, -3.23 59.34" stroke="#f08c00" stroke-width="2" fill="none"></path></g></g><mask></mask><g stroke-linecap="round"><g transform="translate(658.865008165468 194.515625) rotate(0 0.8751786226955574 30.021881103515653)"><path d="M0.95 -1.12 C1.16 3.43, 1.22 18.04, 1.17 28.15 C1.13 38.26, 0.55 54.06, 0.68 59.53 M-0.01 0.9 C-0.01 5.53, -0.6 19.42, -0.08 29.36 C0.45 39.31, 2.74 55.66, 3.17 60.59" stroke="#f08c00" stroke-width="2" fill="none"></path></g><g transform="translate(658.865008165468 194.515625) rotate(0 0.8751786226955574 30.021881103515653)"><path d="M-3.78 46.57 C-3.1 49.9, -0.38 53.76, 3.17 60.59 M-3.78 46.57 C-1.58 49.48, 0.34 53.17, 3.17 60.59" stroke="#f08c00" stroke-width="2" fill="none"></path></g><g transform="translate(658.865008165468 194.515625) rotate(0 0.8751786226955574 30.021881103515653)"><path d="M6.85 45.38 C4.41 49.14, 3.99 53.36, 3.17 60.59 M6.85 45.38 C6.32 48.68, 5.5 52.67, 3.17 60.59" stroke="#f08c00" stroke-width="2" fill="none"></path></g></g><mask></mask><g stroke-linecap="round"><g transform="translate(726.365008165468 195.34893798828125) rotate(0 0.16966404455735073 30.091323852539062)"><path d="M-0.58 -0.61 C-0.92 4.25, -1.43 17.73, -1.14 28.02 C-0.85 38.31, 0.79 55.92, 1.18 61.11 M1.32 1.68 C1.28 6.8, 1.27 19.7, 1.16 29.29 C1.05 38.89, 0.57 54.18, 0.67 59.26" stroke="#f08c00" stroke-width="2" fill="none"></path></g><g transform="translate(726.365008165468 195.34893798828125) rotate(0 0.16966404455735073 30.091323852539062)"><path d="M-4.66 44.35 C-3.58 48.99, -1.43 56.32, 0.67 59.26 M-4.66 44.35 C-2.09 49.44, -0.5 56.25, 0.67 59.26" stroke="#f08c00" stroke-width="2" fill="none"></path></g><g transform="translate(726.365008165468 195.34893798828125) rotate(0 0.16966404455735073 30.091323852539062)"><path d="M6.17 44.41 C3.14 48.98, 1.19 56.29, 0.67 59.26 M6.17 44.41 C4.66 49.39, 2.16 56.17, 0.67 59.26" stroke="#f08c00" stroke-width="2" fill="none"></path></g></g><mask></mask><g stroke-linecap="round"><g transform="translate(357.932379306867 309.515625) rotate(0 -1.220948487784142 31.829421997070312)"><path d="M-0.78 -0.51 C-0.99 4.34, -1.62 17.96, -1.81 28.49 C-1.99 39.02, -1.91 56.95, -1.89 62.67 M1.01 -1.82 C0.74 2.76, -1.94 15.97, -2.5 26.85 C-3.06 37.73, -2.61 57.37, -2.37 63.46" stroke="#f08c00" stroke-width="2" fill="none"></path></g><g transform="translate(357.932379306867 309.515625) rotate(0 -1.220948487784142 31.829421997070312)"><path d="M-9.02 46.68 C-8.19 51.69, -4.36 56.01, -2.37 63.46 M-9.02 46.68 C-7.39 51.06, -6.18 54.3, -2.37 63.46" stroke="#f08c00" stroke-width="2" fill="none"></path></g><g transform="translate(357.932379306867 309.515625) rotate(0 -1.220948487784142 31.829421997070312)"><path d="M3.32 46.33 C1.04 51.34, 1.76 55.76, -2.37 63.46 M3.32 46.33 C2.27 50.7, 0.8 54.02, -2.37 63.46" stroke="#f08c00" stroke-width="2" fill="none"></path></g></g><mask></mask><g stroke-linecap="round"><g transform="translate(431.3078539484522 306.1822814941406) rotate(0 -14.221933355435851 61.694585115974746)"><path d="M0.49 0.93 C0.26 2.49, 1.94 5.16, -2.17 8.88 C-6.29 12.6, -19.87 8.09, -24.21 23.25 C-28.55 38.41, -27.48 83.07, -28.22 99.83 C-28.96 116.58, -28.48 119.77, -28.65 123.77 M-0.72 0.37 C-0.99 2.1, 1.15 5.94, -2.83 9.9 C-6.81 13.86, -20.4 9.46, -24.58 24.11 C-28.76 38.75, -26.98 81.04, -27.92 97.75 C-28.86 114.46, -30.18 120.15, -30.23 124.36" stroke="#f08c00" stroke-width="2" fill="none"></path></g><g transform="translate(431.3078539484522 306.1822814941406) rotate(0 -14.221933355435851 61.694585115974746)"><path d="M-33.51 112.57 C-31.84 115.89, -33.03 118.85, -30.23 124.36 M-33.51 112.57 C-32.86 115.41, -32.42 118.12, -30.23 124.36" stroke="#f08c00" stroke-width="2" fill="none"></path></g><g transform="translate(431.3078539484522 306.1822814941406) rotate(0 -14.221933355435851 61.694585115974746)"><path d="M-25.17 113.22 C-25.45 116.42, -28.61 119.23, -30.23 124.36 M-25.17 113.22 C-26.41 115.98, -27.86 118.54, -30.23 124.36" stroke="#f08c00" stroke-width="2" fill="none"></path></g></g><mask></mask><g stroke-linecap="round"><g transform="translate(661.695865738053 308.61737196862737) rotate(0 -0.49510703615550256 31.84608129163169)"><path d="M0.55 -0.99 C0.43 3.27, -0.08 15.6, -0.24 26.54 C-0.41 37.47, -0.37 58.35, -0.46 64.61 M-0.62 1.1 C-0.88 5.41, -0.71 17.34, -0.8 27.61 C-0.89 37.89, -1.2 56.45, -1.17 62.74" stroke="#f08c00" stroke-width="2" fill="none"></path></g><g transform="translate(661.695865738053 308.61737196862737) rotate(0 -0.49510703615550256 31.84608129163169)"><path d="M-7.27 45.66 C-6.56 52.58, -4.31 57.42, -1.17 62.74 M-7.27 45.66 C-5.61 52.4, -2.42 59.28, -1.17 62.74" stroke="#f08c00" stroke-width="2" fill="none"></path></g><g transform="translate(661.695865738053 308.61737196862737) rotate(0 -0.49510703615550256 31.84608129163169)"><path d="M5.14 45.73 C1.62 52.68, -0.35 57.5, -1.17 62.74 M5.14 45.73 C2.13 52.48, 0.65 59.33, -1.17 62.74" stroke="#f08c00" stroke-width="2" fill="none"></path></g></g><mask></mask><g stroke-linecap="round"><g transform="translate(729.5841371077879 313.6822814941406) rotate(0 2.134751060817166 58.49609375)"><path d="M0.75 -0.88 C1.13 11.85, 2.29 55.64, 2.84 75.35 C3.39 95.05, 3.96 110.36, 4.06 117.37 M-0.32 1.28 C-0.14 13.76, 1.36 54.71, 1.94 73.7 C2.53 92.69, 2.96 107.72, 3.19 115.23" stroke="#f08c00" stroke-width="2" fill="none"></path></g><g transform="translate(729.5841371077879 313.6822814941406) rotate(0 2.134751060817166 58.49609375)"><path d="M-4.69 95.44 C-3.59 102.41, 2.12 108.73, 3.19 115.23 M-4.69 95.44 C-1.89 102.84, -0.15 108.64, 3.19 115.23" stroke="#f08c00" stroke-width="2" fill="none"></path></g><g transform="translate(729.5841371077879 313.6822814941406) rotate(0 2.134751060817166 58.49609375)"><path d="M9.87 95.01 C5.93 102.22, 6.61 108.69, 3.19 115.23 M9.87 95.01 C7.84 102.61, 4.75 108.55, 3.19 115.23" stroke="#f08c00" stroke-width="2" fill="none"></path></g></g><mask></mask><g stroke-linecap="round" transform="translate(446.8357899401243 414.2587583824991) rotate(0 51.5 25)"><path d="M3.33 2.89 C3.33 2.89, 3.33 2.89, 3.33 2.89 M3.33 2.89 C3.33 2.89, 3.33 2.89, 3.33 2.89 M1.1 11.55 C3.34 7.88, 7.03 5.16, 10.28 0.99 M1.1 11.55 C3.45 8.99, 6.78 5.83, 10.28 0.99 M0.84 17.95 C6.51 13.25, 11.91 8.43, 15.93 0.59 M0.84 17.95 C4.35 12.34, 8.05 9.59, 15.93 0.59 M1.23 23.6 C5.47 16.91, 9.25 14.51, 20.91 0.95 M1.23 23.6 C7.41 16.59, 12.5 8.81, 20.91 0.95 M0.97 29.99 C6.15 21.2, 14.69 13, 26.56 0.56 M0.97 29.99 C9.6 19.39, 18.69 11.48, 26.56 0.56 M0.71 36.39 C8.74 25.62, 19.8 12.56, 31.54 0.92 M0.71 36.39 C10.44 24.12, 19.58 13.96, 31.54 0.92 M1.1 42.03 C12.34 30.72, 22.79 14.13, 37.19 0.52 M1.1 42.03 C10.87 31.17, 20.23 19.16, 37.19 0.52 M2.81 46.17 C11.96 36.17, 21.76 24.97, 42.17 0.88 M2.81 46.17 C15.94 29.16, 31.42 14.24, 42.17 0.88 M5.83 48.79 C16.5 36.87, 27.72 21.82, 47.82 0.49 M5.83 48.79 C19.13 34.45, 31.42 19.87, 47.82 0.49 M10.16 49.91 C21.41 37.66, 27.54 27.49, 52.8 0.85 M10.16 49.91 C23.87 34.41, 36.99 19.22, 52.8 0.85 M15.15 50.27 C32.7 32.53, 45.51 15.15, 58.45 0.46 M15.15 50.27 C24.09 39.8, 33.62 28.96, 58.45 0.46 M20.79 49.87 C35.99 30.23, 52.22 13.08, 63.43 0.82 M20.79 49.87 C31.38 36.25, 42.93 24.48, 63.43 0.82 M25.78 50.23 C40.25 36.3, 53.48 18.35, 69.08 0.42 M25.78 50.23 C35.04 40.06, 43.53 29.71, 69.08 0.42 M31.42 49.84 C44.22 35.54, 60.15 19.41, 74.06 0.78 M31.42 49.84 C45.33 34.27, 59.75 18.16, 74.06 0.78 M36.41 50.2 C51.62 33.3, 62.29 18.79, 79.71 0.39 M36.41 50.2 C51.28 34.04, 64.32 17.51, 79.71 0.39 M42.05 49.8 C57.99 32.43, 73.49 10.84, 84.69 0.75 M42.05 49.8 C57.48 31.96, 74.08 12.65, 84.69 0.75 M47.04 50.16 C60.53 32.67, 74.34 18.64, 90.34 0.35 M47.04 50.16 C61.85 34.29, 74.31 18.64, 90.34 0.35 M52.68 49.77 C62.14 39.41, 71.09 27.71, 95.32 0.71 M52.68 49.77 C69.57 30.35, 83.8 12.29, 95.32 0.71 M57.67 50.13 C71.21 35.28, 81.1 21.92, 99 2.58 M57.67 50.13 C65.08 41.74, 74.79 32.11, 99 2.58 M62.65 50.49 C70.05 42.85, 78.84 31.6, 102.02 5.21 M62.65 50.49 C73.15 38.14, 82.74 27.3, 102.02 5.21 M68.3 50.09 C79.83 38.15, 93.49 24.02, 103.07 10.09 M68.3 50.09 C81.02 34.44, 95.42 18.99, 103.07 10.09 M73.28 50.45 C86.79 35.15, 96.88 21.41, 103.46 15.74 M73.28 50.45 C85.44 37.09, 95.27 23.28, 103.46 15.74 M78.93 50.06 C87.51 43.26, 92.17 34.01, 103.2 22.14 M78.93 50.06 C85.48 41.68, 91.21 36.1, 103.2 22.14 M83.91 50.42 C89.21 43.59, 96.66 33.74, 103.6 27.78 M83.91 50.42 C90.8 42.76, 96.76 36.12, 103.6 27.78 M89.56 50.03 C92.9 46.22, 96.7 43.68, 103.33 34.18 M89.56 50.03 C93.74 44.24, 100.26 37.69, 103.33 34.18 M95.86 48.88 C96.31 48.07, 99.44 45.76, 102.42 41.33 M95.86 48.88 C97.8 47.07, 98.67 45.37, 102.42 41.33" stroke="#ffec99" stroke-width="0.5" fill="none"></path><path d="M12.5 0 C42.27 -0.41, 69.63 -1.4, 90.5 0 M12.5 0 C38.18 -0.57, 65 -0.21, 90.5 0 M90.5 0 C100.45 -1.57, 102.13 4.74, 103 12.5 M90.5 0 C98.7 -2.18, 100.97 4.42, 103 12.5 M103 12.5 C101.64 21.97, 104.65 28.85, 103 37.5 M103 12.5 C102.84 19.19, 102.74 27.33, 103 37.5 M103 37.5 C101.85 46.26, 99.74 49.63, 90.5 50 M103 37.5 C102.63 45.8, 96.85 50.84, 90.5 50 M90.5 50 C66.9 48.95, 42.63 50.01, 12.5 50 M90.5 50 C71.75 49.84, 54.28 50.61, 12.5 50 M12.5 50 C6.06 48.77, -0.67 46.9, 0 37.5 M12.5 50 C2.96 50.61, 0.65 47.68, 0 37.5 M0 37.5 C-0.33 30.42, -0.12 27.23, 0 12.5 M0 37.5 C-0.41 28.66, -0.95 18.84, 0 12.5 M0 12.5 C-0.3 2.68, 6.09 1.45, 12.5 0 M0 12.5 C1.3 3.66, 3.87 -0.61, 12.5 0" stroke="#1e1e1e" stroke-width="1" fill="none"></path></g><g transform="translate(459.5677006456907 429.2587583824991) rotate(0 38.768089294433594 10)"><text x="38.768089294433594" y="0" font-family="Virgil, Segoe UI Emoji" font-size="16px" fill="#1e1e1e" text-anchor="middle" style="white-space: pre;" direction="ltr" dominant-baseline="text-before-edge">networking</text></g><g stroke-linecap="round"><g transform="translate(570.867663224878 401.5938623370529) rotate(0 -8.284730009296453 12.579558624217498)"><path d="M-0.21 0.38 C-3.12 4.49, -14.71 21.29, -17.37 25.59 M-1.78 -0.47 C-4.32 3.2, -12.58 19.56, -15.08 23.7" stroke="#f08c00" stroke-width="2" fill="none"></path></g></g><mask></mask><g stroke-linecap="round"><g transform="translate(621.0855698850356 454.971944122996) rotate(0 -33.208153817762366 -3.9749072658329965)"><path d="M-0.8 0.44 C-11.77 -0.78, -54.99 -5.54, -66.03 -6.91 M0.98 -0.38 C-10.1 -1.95, -55.25 -7.48, -66.78 -8.49" stroke="#f08c00" stroke-width="2" fill="none"></path></g></g><mask></mask><g stroke-linecap="round"><g transform="translate(443.43117451955925 427.72811698980524) rotate(0 -27.457017200215887 -12.913956684936807)"><path d="M0.38 1.04 C-8.75 -3.32, -46.37 -21.32, -55.58 -25.7 M-0.88 0.53 C-9.54 -3.65, -44.09 -19.46, -53.22 -24.1" stroke="#f08c00" stroke-width="2" fill="none"></path></g></g><mask></mask><g stroke-linecap="round"><g transform="translate(441.57598800682666 448.1353724487316) rotate(0 -12.615389219109915 3.9683941244769585)"><path d="M-0.31 0.06 C-4.54 1.34, -21.13 6.95, -25.21 8.19 M0.54 -0.39 C-3.78 0.97, -21.39 5.98, -25.63 7.36" stroke="#f08c00" stroke-width="2" fill="none"></path></g></g><mask></mask><g stroke-linecap="round" transform="translate(40.08305691666885 321.7494198096781) rotate(0 44.402036864909974 21.273694226452847)"><path d="M2.83 2.46 C2.83 2.46, 2.83 2.46, 2.83 2.46 M2.83 2.46 C2.83 2.46, 2.83 2.46, 2.83 2.46 M0.6 11.12 C3.82 8.72, 4.21 6.52, 10.44 -0.2 M0.6 11.12 C4.52 7.05, 7.68 4.28, 10.44 -0.2 M1 16.77 C6.79 10.85, 10.62 6.22, 15.43 0.16 M1 16.77 C5.95 11.89, 10.76 6.9, 15.43 0.16 M0.73 23.16 C5.49 14.79, 15.31 7, 20.42 0.52 M0.73 23.16 C4.6 18.17, 10.69 11.78, 20.42 0.52 M1.13 28.81 C11.25 19.76, 15.4 8.46, 25.4 0.88 M1.13 28.81 C5.08 23.36, 11.29 18.47, 25.4 0.88 M0.87 35.2 C11.03 24.98, 20.34 12.27, 31.05 0.49 M0.87 35.2 C8.47 25.09, 18.15 15.25, 31.05 0.49 M3.23 38.58 C12.15 24.87, 23.33 15.24, 36.03 0.85 M3.23 38.58 C12.34 28.72, 21 18.46, 36.03 0.85 M5.59 41.96 C14.41 32.06, 21.4 24.63, 41.68 0.45 M5.59 41.96 C14.64 30.92, 25.21 19.43, 41.68 0.45 M10.58 42.32 C24.66 26.05, 36.88 12.82, 46.66 0.81 M10.58 42.32 C24.79 26.54, 39.01 10.87, 46.66 0.81 M15.57 42.68 C28.27 30.58, 39.44 14.6, 51.65 1.17 M15.57 42.68 C29.9 26.68, 43.25 11.03, 51.65 1.17 M21.21 42.29 C31.82 33.74, 39.85 21.41, 57.29 0.78 M21.21 42.29 C31.53 29.96, 41.78 18.08, 57.29 0.78 M26.2 42.65 C34.76 33.9, 40.79 23.08, 62.28 1.14 M26.2 42.65 C36.85 28.87, 47.38 16.5, 62.28 1.14 M31.84 42.25 C41.98 30.38, 53.43 18.6, 67.92 0.74 M31.84 42.25 C41.51 31.17, 49.69 20.21, 67.92 0.74 M36.83 42.61 C46.46 30, 56.65 19.08, 72.91 1.1 M36.83 42.61 C50.77 26.61, 66.34 8.87, 72.91 1.1 M41.81 42.97 C55.55 29.51, 68.95 13.5, 77.9 1.47 M41.81 42.97 C51.26 31.88, 62.14 19.41, 77.9 1.47 M47.46 42.58 C55.06 32.5, 63.47 22.82, 83.54 1.07 M47.46 42.58 C57.51 31.9, 67.2 20.03, 83.54 1.07 M52.44 42.94 C66.84 26.83, 80.11 12.73, 86.56 3.69 M52.44 42.94 C62.6 32.52, 72.49 20.16, 86.56 3.69 M58.09 42.54 C69.51 28.87, 81.67 14.69, 88.27 7.83 M58.09 42.54 C69.1 28.75, 80.9 16.11, 88.27 7.83 M63.07 42.91 C69.99 34.41, 74.67 29.12, 88.66 13.47 M63.07 42.91 C69.54 34.7, 76.6 27.54, 88.66 13.47 M68.06 43.27 C75.36 35.61, 82.08 25.52, 88.4 19.87 M68.06 43.27 C74.02 37.66, 79.79 30.88, 88.4 19.87 M73.71 42.87 C78.46 41.15, 79.29 34.3, 88.14 26.27 M73.71 42.87 C78.38 37.65, 84.76 31.24, 88.14 26.27 M78.69 43.23 C81.52 39.17, 86.28 33.59, 88.53 31.91 M78.69 43.23 C82.49 39.03, 85.02 35.48, 88.53 31.91" stroke="#a5d8ff" stroke-width="0.5" fill="none"></path><path d="M10.64 0 C28.08 1.59, 42.1 -0.9, 78.17 0 M10.64 0 C31.96 0.75, 55.57 0.7, 78.17 0 M78.17 0 C84.37 -1.37, 89.48 5.18, 88.8 10.64 M78.17 0 C83.84 -0.24, 89.61 5.82, 88.8 10.64 M88.8 10.64 C89.4 15.33, 89.11 23.23, 88.8 31.91 M88.8 10.64 C87.91 16.99, 88.83 21.81, 88.8 31.91 M88.8 31.91 C87.22 39.25, 84.83 42.37, 78.17 42.55 M88.8 31.91 C89.53 37.41, 86.09 44.3, 78.17 42.55 M78.17 42.55 C63 44.29, 46.54 41.73, 10.64 42.55 M78.17 42.55 C54.59 43.53, 29.5 43.28, 10.64 42.55 M10.64 42.55 C2.62 42.36, -1.96 39.02, 0 31.91 M10.64 42.55 C3.52 43.8, 2.03 40.18, 0 31.91 M0 31.91 C-1.89 25.62, -1.49 21.86, 0 10.64 M0 31.91 C-0.25 23.72, -1.05 16.77, 0 10.64 M0 10.64 C0.1 4.34, 3.78 -0.37, 10.64 0 M0 10.64 C1.62 3.85, 1.47 0.99, 10.64 0" stroke="#1971c2" stroke-width="1" fill="none"></path></g><g transform="translate(56.96503610335617 333.0231140361309) rotate(0 27.520057678222656 10)"><text x="27.520057678222656" y="0" font-family="Virgil, Segoe UI Emoji" font-size="16px" fill="#1971c2" text-anchor="middle" style="white-space: pre;" direction="ltr" dominant-baseline="text-before-edge">kubectl</text></g><g stroke-linecap="round"><g transform="translate(85.31619081964593 310.51153742842723) rotate(0 0.9856642536149778 -48.424112349887565)"><path d="M0.97 -0.94 C1.2 -17.12, 1.29 -80.33, 1.45 -96.5 M0.02 1.18 C0.04 -15.42, 0.04 -82.03, 0.22 -98.44" stroke="#1971c2" stroke-width="2" fill="none"></path></g><g transform="translate(85.31619081964593 310.51153742842723) rotate(0 0.9856642536149778 -48.424112349887565)"><path d="M10.35 -70.2 C5.58 -79.57, 4.65 -87.4, 0.22 -98.44 M10.35 -70.2 C9.04 -75.93, 6 -82.47, 0.22 -98.44" stroke="#1971c2" stroke-width="2" fill="none"></path></g><g transform="translate(85.31619081964593 310.51153742842723) rotate(0 0.9856642536149778 -48.424112349887565)"><path d="M-10.17 -70.3 C-8.71 -79.81, -3.41 -87.6, 0.22 -98.44 M-10.17 -70.3 C-7.27 -76.02, -6.1 -82.55, 0.22 -98.44" stroke="#1971c2" stroke-width="2" fill="none"></path></g></g><mask></mask><g stroke-linecap="round" transform="translate(10 152.5765726254757) rotate(0 72 25)"><path d="M12.5 0 C58.37 0.4, 101.2 -1.25, 131.5 0 M12.5 0 C49.07 -0.76, 86.86 0.74, 131.5 0 M131.5 0 C138.6 -0.21, 144.71 6.14, 144 12.5 M131.5 0 C139.25 -1.25, 143.19 4.98, 144 12.5 M144 12.5 C143.68 18.24, 144.02 22.89, 144 37.5 M144 12.5 C143.22 21.04, 143.8 29.24, 144 37.5 M144 37.5 C144.63 44.45, 140.56 51.53, 131.5 50 M144 37.5 C142.28 44.1, 139.33 50.03, 131.5 50 M131.5 50 C85.59 48.55, 38.09 50.16, 12.5 50 M131.5 50 C85.81 50.56, 40.05 50.66, 12.5 50 M12.5 50 C4.14 51.09, 1.77 46.86, 0 37.5 M12.5 50 C3.74 50.05, -1.68 43.66, 0 37.5 M0 37.5 C1.64 31.5, -0.26 22.99, 0 12.5 M0 37.5 C0.28 31.06, 0.35 23.63, 0 12.5 M0 12.5 C1.41 4.43, 2.36 0.86, 12.5 0 M0 12.5 C-1.93 5.26, 1.98 1.2, 12.5 0" stroke="#1e1e1e" stroke-width="1" fill="none"></path></g><g transform="translate(20.77587127685547 157.5765726254757) rotate(0 61.22412872314453 20)"><text x="61.22412872314453" y="0" font-family="Virgil, Segoe UI Emoji" font-size="16px" fill="#1e1e1e" text-anchor="middle" style="white-space: pre;" direction="ltr" dominant-baseline="text-before-edge">virtual cluster </text><text x="61.22412872314453" y="20" font-family="Virgil, Segoe UI Emoji" font-size="16px" fill="#1e1e1e" text-anchor="middle" style="white-space: pre;" direction="ltr" dominant-baseline="text-before-edge">control plane</text></g><g stroke-linecap="round"><g transform="translate(88.16166057687468 147.51771545410156) rotate(0 57.58103942871094 -20.858636367031153)"><path d="M-0.07 -1.14 C2.64 -7.55, -3.59 -31.37, 15.72 -38.12 C35.03 -44.87, 99.3 -40.9, 115.78 -41.64 M-1.57 0.88 C1.55 -5.34, -1.61 -29.65, 17.88 -36.51 C37.36 -43.37, 99.22 -39.39, 115.34 -40.28" stroke="#1971c2" stroke-width="2" fill="none"></path></g><g transform="translate(88.16166057687468 147.51771545410156) rotate(0 57.58103942871094 -20.858636367031153)"><path d="M87.11 -30.12 C92.43 -34.48, 101.78 -34.28, 115.34 -40.28 M87.11 -30.12 C96.15 -32.22, 103.85 -36.26, 115.34 -40.28" stroke="#1971c2" stroke-width="2" fill="none"></path></g><g transform="translate(88.16166057687468 147.51771545410156) rotate(0 57.58103942871094 -20.858636367031153)"><path d="M87.19 -50.64 C92.54 -49.74, 101.87 -44.28, 115.34 -40.28 M87.19 -50.64 C96.11 -46.45, 103.79 -44.2, 115.34 -40.28" stroke="#1971c2" stroke-width="2" fill="none"></path></g></g><mask></mask></svg>