<svg class="main-svg" xmlns="http://www.w3.org/2000/svg" xmlns:xlink="http://www.w3.org/1999/xlink" width="400" height="300" style="" viewBox="0 0 400 300"><rect x="0" y="0" width="400" height="300" style="fill: rgb(255, 255, 255); fill-opacity: 1;"/><defs id="defs-06cd57"><g class="clips"><clipPath id="clip06cd57xyplot" class="plotclip"><rect width="240" height="120"/></clipPath><clipPath class="axesclip" id="clip06cd57x"><rect x="80" y="0" width="240" height="300"/></clipPath><clipPath class="axesclip" id="clip06cd57y"><rect x="0" y="100" width="400" height="120"/></clipPath><clipPath class="axesclip" id="clip06cd57xy"><rect x="80" y="100" width="240" height="120"/></clipPath></g><g class="gradients"/></defs><g class="bglayer"/><g class="layer-below"><g class="imagelayer"/><g class="shapelayer"/></g><g class="cartesianlayer"><g class="subplot xy"><g class="layer-subplot"><g class="shapelayer"/><g class="imagelayer"/></g><g class="gridlayer"><g class="x"/><g class="y"><path class="ygrid crisp" transform="translate(0,215.79000000000002)" d="M80,0h240" style="stroke: rgb(238, 238, 238); stroke-opacity: 1; stroke-width: 1px;"/><path class="ygrid crisp" transform="translate(0,191.75)" d="M80,0h240" style="stroke: rgb(238, 238, 238); stroke-opacity: 1; stroke-width: 1px;"/><path class="ygrid crisp" transform="translate(0,167.72)" d="M80,0h240" style="stroke: rgb(238, 238, 238); stroke-opacity: 1; stroke-width: 1px;"/><path class="ygrid crisp" transform="translate(0,143.69)" d="M80,0h240" style="stroke: rgb(238, 238, 238); stroke-opacity: 1; stroke-width: 1px;"/><path class="ygrid crisp" transform="translate(0,119.66)" d="M80,0h240" style="stroke: rgb(238, 238, 238); stroke-opacity: 1; stroke-width: 1px;"/></g></g><g class="zerolinelayer"/><path class="xlines-below"/><path class="ylines-below"/><g class="overlines-below"/><g class="xaxislayer-below"/><g class="yaxislayer-below"/><g class="overaxes-below"/><g class="plot" transform="translate(80,100)" clip-path="url('#clip06cd57xyplot')"><g class="boxlayer mlayer"><g class="trace boxes" style="opacity: 1;"><path class="box" d="M63.43,28.71H179.56M63.43,66.99H179.56V14.43H63.43ZM121.5,66.99V114M121.5,14.43V6M92.47,114H150.53M92.47,6H150.53" style="vector-effect: non-scaling-stroke; stroke-width: 2px; stroke: rgb(31, 119, 180); stroke-opacity: 1; fill: rgb(31, 119, 180); fill-opacity: 0.5;"/><g class="points"><path class="point" transform="translate(41.09,114)" d="M3,0A3,3 0 1,1 0,-3A3,3 0 0,1 3,0Z" style="opacity: 1; stroke-width: 0px; fill: rgb(31, 119, 180); fill-opacity: 1;"/><path class="point" transform="translate(25.66,75)" d="M3,0A3,3 0 1,1 0,-3A3,3 0 0,1 3,0Z" style="opacity: 1; stroke-width: 0px; fill: rgb(31, 119, 180); fill-opacity: 1;"/><path class="point" transform="translate(45.6,58.97)" d="M3,0A3,3 0 1,1 0,-3A3,3 0 0,1 3,0Z" style="opacity: 1; stroke-width: 0px; fill: rgb(31, 119, 180); fill-opacity: 1;"/><path class="point" transform="translate(22.19,35.66)" d="M3,0A3,3 0 1,1 0,-3A3,3 0 0,1 3,0Z" style="opacity: 1; stroke-width: 0px; fill: rgb(31, 119, 180); fill-opacity: 1;"/><path class="point" transform="translate(30.85,21.75)" d="M3,0A3,3 0 1,1 0,-3A3,3 0 0,1 3,0Z" style="opacity: 1; stroke-width: 0px; fill: rgb(31, 119, 180); fill-opacity: 1;"/><path class="point" transform="translate(41.98,17.34)" d="M3,0A3,3 0 1,1 0,-3A3,3 0 0,1 3,0Z" style="opacity: 1; stroke-width: 0px; fill: rgb(31, 119, 180); fill-opacity: 1;"/><path class="point" transform="translate(33.78,11.53)" d="M3,0A3,3 0 1,1 0,-3A3,3 0 0,1 3,0Z" style="opacity: 1; stroke-width: 0px; fill: rgb(31, 119, 180); fill-opacity: 1;"/><path class="point" transform="translate(39.45,6)" d="M3,0A3,3 0 1,1 0,-3A3,3 0 0,1 3,0Z" style="opacity: 1; stroke-width: 0px; fill: rgb(31, 119, 180); fill-opacity: 1;"/></g></g></g></g><g class="overplot"/><path class="xlines-above crisp" d="M0,0" style="fill: none;"/><path class="ylines-above crisp" d="M0,0" style="fill: none;"/><g class="overlines-above"/><g class="xaxislayer-above"><g class="xtick"><text text-anchor="middle" x="0" y="233" transform="translate(201.5,0)" style="font-family: 'Open Sans', verdana, arial, sans-serif; font-size: 12px; fill: rgb(68, 68, 68); fill-opacity: 1; white-space: pre;"></text></g></g><g class="yaxislayer-above"><g class="ytick"><text text-anchor="end" x="79" y="4.199999999999999" transform="translate(0,215.79000000000002)" style="font-family: 'Open Sans', verdana, arial, sans-serif; font-size: 12px; fill: rgb(68, 68, 68); fill-opacity: 1; white-space: pre;">650</text></g><g class="ytick"><text text-anchor="end" x="79" y="4.199999999999999" transform="translate(0,191.75)" style="font-family: 'Open Sans', verdana, arial, sans-serif; font-size: 12px; fill: rgb(68, 68, 68); fill-opacity: 1; white-space: pre;">700</text></g><g class="ytick"><text text-anchor="end" x="79" y="4.199999999999999" transform="translate(0,167.72)" style="font-family: 'Open Sans', verdana, arial, sans-serif; font-size: 12px; fill: rgb(68, 68, 68); fill-opacity: 1; white-space: pre;">750</text></g><g class="ytick"><text text-anchor="end" x="79" y="4.199999999999999" transform="translate(0,143.69)" style="font-family: 'Open Sans', verdana, arial, sans-serif; font-size: 12px; fill: rgb(68, 68, 68); fill-opacity: 1; white-space: pre;">800</text></g><g class="ytick"><text text-anchor="end" x="79" y="4.199999999999999" transform="translate(0,119.66)" style="font-family: 'Open Sans', verdana, arial, sans-serif; font-size: 12px; fill: rgb(68, 68, 68); fill-opacity: 1; white-space: pre;">850</text></g></g><g class="overaxes-above"/></g></g><g class="polarlayer"/><g class="ternarylayer"/><g class="geolayer"/><g class="funnelarealayer"/><g class="pielayer"/><g class="treemaplayer"/><g class="sunburstlayer"/><g class="glimages"/><defs id="topdefs-06cd57"><g class="clips"/></defs><g class="layer-above"><g class="imagelayer"/><g class="shapelayer"/></g><g class="infolayer"><g class="g-gtitle"/><g class="g-xtitle"/><g class="g-ytitle"/></g></svg>